<svg width="41" height="49" viewBox="0 0 41 49" fill="none" xmlns="http://www.w3.org/2000/svg">
<g clip-path="url(#clip0_3490_65003)">
<path d="M5.76367 1.28027C3.00225 1.28027 0.763672 3.51885 0.763672 6.28027V44.7116C0.763672 46.373 2.11049 47.7198 3.77187 47.7198H5.26641C6.10237 47.7198 6.78006 47.0421 6.78006 46.2062C6.78006 44.396 8.21544 42.9292 9.98676 42.9292C11.7581 42.9292 13.1935 44.396 13.1935 46.2062C13.1935 47.0421 13.8712 47.7198 14.7071 47.7198H15.6347C16.4707 47.7198 17.1484 47.0421 17.1484 46.2062C17.1484 44.396 18.5838 42.9292 20.3551 42.9292C22.1264 42.9292 23.5618 44.396 23.5618 46.2062C23.5618 47.0421 24.2395 47.7198 25.0755 47.7198H26.0031C26.8391 47.7198 27.5167 47.0421 27.5167 46.2062C27.5167 44.396 28.9521 42.9292 30.7234 42.9292C32.4948 42.9292 33.9302 44.396 33.9302 46.2062C33.9302 47.0421 34.6078 47.7198 35.4438 47.7198H37.0987C38.8486 47.7198 40.2672 46.3012 40.2672 44.5513V6.28027C40.2672 3.51884 38.0286 1.28027 35.2672 1.28027H5.76367Z" fill="white" stroke="#00196C" stroke-width="2" stroke-linejoin="round"/>
<path d="M5.9707 9.02051H34.8158" stroke="#00196C" stroke-width="2" stroke-miterlimit="10" stroke-linecap="round"/>
<path d="M5.9707 15.2773H34.8158" stroke="#00196C" stroke-width="2" stroke-miterlimit="10" stroke-linecap="round"/>
<path d="M21.21 24.5H34.8155" stroke="#00196C" stroke-width="2" stroke-miterlimit="10" stroke-linecap="round"/>
<path d="M21.21 30.7734H34.8155" stroke="#00196C" stroke-width="2" stroke-miterlimit="10" stroke-linecap="round"/>
<path d="M21.21 36.9053H34.8155" stroke="#00196C" stroke-width="2" stroke-miterlimit="10" stroke-linecap="round"/>
<path opacity="0.5" d="M16.0794 35.1272C15.5602 35.3457 15.0105 35.4549 14.415 35.4549C13.5599 35.4549 12.8422 35.174 12.2466 34.6279C11.7275 34.1441 11.3457 33.3795 11.1167 32.3808H14.3997V30.7423H10.8571C10.8418 30.4458 10.8265 30.1337 10.8265 29.7748C10.8265 29.4627 10.8265 29.1818 10.8571 28.9165H14.3997V27.278H11.1167C11.361 26.2949 11.7275 25.5459 12.2466 25.0622C12.8422 24.516 13.5599 24.2351 14.415 24.2351C15.0105 24.2351 15.5602 24.3444 16.0794 24.5472C16.5986 24.7501 17.0872 25.109 17.5453 25.6239L18.4615 23.6578C17.9729 23.0492 17.3468 22.5966 16.5986 22.2845C15.8504 21.9725 15.0563 21.8164 14.2165 21.8164C13.1628 21.8164 12.2161 22.0505 11.3762 22.503C10.5364 22.9555 9.84924 23.6265 9.31479 24.516C8.84142 25.2806 8.50548 26.2169 8.2917 27.278H6.19971V28.9165H8.07792C8.06265 29.1974 8.03211 29.4783 8.03211 29.7748C8.03211 30.0713 8.04738 30.399 8.06265 30.7267H6.19971V32.3652H8.27643C8.49021 33.4263 8.82615 34.3626 9.29952 35.1428C9.83397 36.0323 10.5364 36.7033 11.361 37.1714C12.2008 37.6239 13.1476 37.858 14.2012 37.858C15.041 37.858 15.8351 37.702 16.5833 37.3899C17.3316 37.0778 17.9576 36.6096 18.4463 36.0011L17.5301 34.0505C17.072 34.5498 16.5833 34.9087 16.0641 35.1272H16.0794Z" fill="#00196C"/>
</g>
<defs>
<clipPath id="clip0_3490_65003">
<rect width="41" height="48" fill="white" transform="translate(0 0.5)"/>
</clipPath>
</defs>
</svg>
