<svg width="59" height="40" viewBox="0 0 59 40" fill="none" xmlns="http://www.w3.org/2000/svg">
<path d="M55.853 1.92871H3.147C1.96125 1.92871 1 2.89181 1 4.07986V35.9205C1 37.1086 1.96125 38.0717 3.147 38.0717H55.853C57.0388 38.0717 58 37.1086 58 35.9205V4.07986C58 2.89181 57.0388 1.92871 55.853 1.92871Z" fill="white" stroke="#00196C" stroke-width="2" stroke-miterlimit="10"/>
<path d="M58 6.50098H15.6528" stroke="#00196C" stroke-width="2" stroke-miterlimit="10" stroke-linecap="round"/>
<path d="M58 31.168H1" stroke="#00196C" stroke-width="2" stroke-miterlimit="10"/>
<path opacity="0.25" d="M16.353 10.4258H2.61426V27.3916H16.353V10.4258Z" fill="#00196C"/>
<path d="M42.8142 9.80566H20.0069C19.6015 9.80566 19.2729 10.1349 19.2729 10.541V10.5436C19.2729 10.9498 19.6015 11.279 20.0069 11.279H42.8142C43.2196 11.279 43.5482 10.9498 43.5482 10.5436V10.541C43.5482 10.1349 43.2196 9.80566 42.8142 9.80566Z" fill="#00196C"/>
<path d="M34.613 3.54883H16.3243C15.9189 3.54883 15.5903 3.87806 15.5903 4.2842V4.46477C15.5903 4.8709 15.9189 5.20013 16.3243 5.20013H34.613C35.0183 5.20013 35.3469 4.8709 35.3469 4.46477V4.2842C35.3469 3.87806 35.0183 3.54883 34.613 3.54883Z" fill="#00196C"/>
<path d="M54.5573 3.85156H38.1231C37.7178 3.85156 37.3892 4.1808 37.3892 4.58693V4.58955C37.3892 4.99568 37.7178 5.32492 38.1231 5.32492H54.5573C54.9627 5.32492 55.2913 4.99568 55.2913 4.58955V4.58693C55.2913 4.1808 54.9627 3.85156 54.5573 3.85156Z" fill="#00196C"/>
<path d="M28.4669 11.9756H20.0069C19.6015 11.9756 19.2729 12.3048 19.2729 12.711V12.7136C19.2729 13.1197 19.6015 13.4489 20.0069 13.4489H28.4669C28.8723 13.4489 29.2009 13.1197 29.2009 12.7136V12.711C29.2009 12.3048 28.8723 11.9756 28.4669 11.9756Z" fill="#00196C"/>
<path d="M28.4669 14.2021H20.0069C19.6015 14.2021 19.2729 14.5314 19.2729 14.9375V14.9401C19.2729 15.3463 19.6015 15.6755 20.0069 15.6755H28.4669C28.8723 15.6755 29.2009 15.3463 29.2009 14.9401V14.9375C29.2009 14.5314 28.8723 14.2021 28.4669 14.2021Z" fill="#00196C"/>
<path d="M23.4259 18.3008H20.0069C19.6015 18.3008 19.2729 18.63 19.2729 19.0362V19.0388C19.2729 19.4449 19.6015 19.7741 20.0069 19.7741H23.4259C23.8313 19.7741 24.1599 19.4449 24.1599 19.0388V19.0362C24.1599 18.63 23.8313 18.3008 23.4259 18.3008Z" fill="#00196C"/>
<path d="M24.1599 16.2754H20.0069C19.6015 16.2754 19.2729 16.6046 19.2729 17.0108V17.0134C19.2729 17.4195 19.6015 17.7487 20.0069 17.7487H24.1599C24.5652 17.7487 24.8938 17.4195 24.8938 17.0134V17.0108C24.8938 16.6046 24.5652 16.2754 24.1599 16.2754Z" fill="#00196C"/>
<path d="M34.2837 16.2754H28.6002C28.1948 16.2754 27.8662 16.6046 27.8662 17.0108V17.0134C27.8662 17.4195 28.1948 17.7487 28.6002 17.7487H34.2837C34.6891 17.7487 35.0177 17.4195 35.0177 17.0134V17.0108C35.0177 16.6046 34.6891 16.2754 34.2837 16.2754Z" fill="#00196C"/>
<path d="M32.3639 20.6924H20.0069C19.6015 20.6924 19.2729 21.0216 19.2729 21.4278V21.4304C19.2729 21.8365 19.6015 22.1657 20.0069 22.1657H32.3639C32.7693 22.1657 33.0979 21.8365 33.0979 21.4304V21.4278C33.0979 21.0216 32.7693 20.6924 32.3639 20.6924Z" fill="#00196C"/>
<path d="M18.215 28.1748H3.83112C3.42577 28.1748 3.09717 28.504 3.09717 28.9102V28.9128C3.09717 29.3189 3.42577 29.6482 3.83112 29.6482H18.215C18.6203 29.6482 18.9489 29.3189 18.9489 28.9128V28.9102C18.9489 28.504 18.6203 28.1748 18.215 28.1748Z" fill="#00196C"/>
<path d="M16.3636 27.303H16.1259H2.61964C2.61964 27.2428 2.61964 27.1931 2.61964 27.1408C2.61964 26.8346 2.63531 26.5258 2.61964 26.2222C2.60495 26.1341 2.62359 26.0438 2.67189 25.9687C2.7202 25.8937 2.79471 25.8395 2.88083 25.8166C4.07187 25.2687 5.25943 24.714 6.4435 24.1522C6.52904 24.1095 6.60063 24.0432 6.64984 23.9611C6.88906 23.6255 7.00111 23.2154 6.96589 22.8044C7.02931 22.7718 7.0958 22.7455 7.16439 22.7259C7.37857 22.6919 7.42558 22.5584 7.45432 22.3569C7.47521 22.0403 7.52223 21.7262 7.55357 21.4096C7.56115 21.344 7.54935 21.2775 7.51961 21.2186C7.19296 20.6727 6.94996 20.0807 6.79872 19.4626C6.79872 19.4128 6.75693 19.3343 6.72559 19.3291C6.63794 19.3071 6.55936 19.2581 6.50082 19.1892C6.44229 19.1202 6.40672 19.0346 6.3991 18.9444C6.29201 18.4655 6.19014 17.9814 6.1379 17.492C6.10134 17.212 6.17186 17.1649 6.47223 17.1256C6.24116 16.5494 6.0934 15.9432 6.03343 15.3251C5.98123 14.7084 6.00756 14.0876 6.11179 13.4776C6.78044 13.6372 7.25842 13.297 7.61364 12.839C8.42073 11.7922 10.4554 11.5305 11.6569 12.1926C12.0434 12.3968 12.3526 12.7222 12.5371 13.119C12.5602 13.1687 12.5931 13.2133 12.6338 13.2499C13.48 13.9879 13.7177 14.9326 13.5427 16.0029C13.4879 16.3327 13.3625 16.6493 13.2815 16.9738C13.2763 17.0507 13.2851 17.1278 13.3076 17.2015C13.3431 17.2968 13.3668 17.3961 13.3782 17.4972C13.3566 18.03 13.2462 18.5554 13.0517 19.0517C13.0073 19.1564 12.8845 19.227 12.7905 19.3134C12.7477 19.3498 12.7138 19.3954 12.6912 19.4469C12.5468 20.0602 12.308 20.6473 11.9834 21.1872C11.9472 21.2496 11.9326 21.3223 11.9416 21.3939C11.9729 21.7524 12.02 22.1109 12.0487 22.4695C12.0462 22.5213 12.0629 22.5722 12.0958 22.6123C12.1286 22.6525 12.1751 22.679 12.2263 22.6867C12.2812 22.6998 12.3308 22.7259 12.383 22.7416C12.4849 22.7704 12.5215 22.8149 12.511 22.9353C12.4993 23.1453 12.4993 23.3559 12.511 23.566C12.511 23.5791 12.511 23.5974 12.511 23.6026C12.7722 23.7727 12.8584 24.126 13.2032 24.2569C14.2479 24.6913 15.2431 25.1911 16.2617 25.6648C16.2944 25.6783 16.3286 25.688 16.3636 25.6936V27.303Z" fill="#00196C"/>
<path d="M13.4719 4.34668H5.44287V9.70885H13.4719V4.34668Z" fill="#00196C"/>
<path d="M23.7315 29.1059C25.1211 28.5642 26.6256 27.3813 25.9465 25.7195C25.9178 25.6201 25.8515 25.5357 25.7618 25.4844C25.6721 25.4331 25.5659 25.4189 25.4659 25.4448C24.0006 25.9681 23.4416 27.9884 24.9774 28.8468C25.376 29.0481 25.8204 29.1407 26.2661 29.1155C26.7117 29.0902 27.1428 28.9479 27.5162 28.7029C28.3546 28.1298 28.3468 27.2766 28.1274 26.3685C28.1079 26.3032 28.072 26.244 28.023 26.1966C27.9741 26.1492 27.9138 26.1151 27.848 26.0978C27.7822 26.0805 27.713 26.0804 27.6471 26.0975C27.5812 26.1147 27.5209 26.1485 27.4718 26.1958C26.0979 27.7189 27.733 28.9986 29.3733 28.9463C30.7367 28.9044 32.0584 27.5043 30.4599 26.6119C30.3848 26.5691 30.2979 26.5519 30.2122 26.5627C30.1265 26.5736 30.0466 26.6119 29.9845 26.6721C28.5244 28.3601 32.2072 29.4487 33.0561 27.7424L32.6121 27.923C33.602 28.3103 36.8486 29.87 37.5747 28.2423C38.2094 26.7873 35.8744 25.5049 34.8792 25.1019C32.5834 24.1441 29.9976 24.0551 27.5658 24.3639C26.2986 24.5291 25.0445 24.7827 23.8125 25.1229C23.0054 25.3401 21.8745 25.4578 21.3808 26.2141C21.3457 26.274 21.3271 26.3422 21.3271 26.4117C21.3271 26.4812 21.3457 26.5494 21.3808 26.6093C21.8379 27.3944 23.3815 27.2321 24.1625 27.2531C25.8793 27.2631 27.5946 27.1486 29.2949 26.9103C32.6585 26.4861 36.0553 26.3923 39.437 26.6302V25.8451H39.0191C38.515 25.8294 38.515 26.6145 39.0191 26.6302H39.437C39.9438 26.6459 39.9333 25.8818 39.437 25.8451C36.3866 25.5994 33.3195 25.6538 30.2796 26.0074C28.7308 26.1906 27.1793 26.3947 25.62 26.4549C24.8923 26.4872 24.1633 26.4802 23.4364 26.434C23.2614 26.4209 22.5771 26.4811 22.5013 26.3241C22.5013 26.345 23.5148 26.0205 23.5827 26.0022C26.508 25.17 29.6711 24.6256 32.6904 25.2537C33.918 25.5154 35.3024 25.9237 36.2374 26.8239C36.705 27.2714 36.8539 27.3237 36.2818 27.7686C35.7098 28.2135 35.6968 28.1036 35.0333 27.923C34.2899 27.7185 33.5583 27.473 32.8419 27.1877C32.7588 27.1644 32.6703 27.1696 32.5904 27.2023C32.5105 27.235 32.4437 27.2933 32.4005 27.3682C32.2924 27.5365 32.137 27.6691 31.9539 27.7491C31.7708 27.8292 31.5681 27.8533 31.3714 27.8183C30.9405 27.9413 30.6714 27.7529 30.5591 27.2478L30.0864 27.3107L29.8069 28.1376C29.5145 28.203 29.2112 28.203 28.9188 28.1376C28.4304 28.067 27.1323 27.7765 28.0464 26.7611L27.3908 26.5884C27.5972 27.4363 26.5812 28.6819 25.6121 28.2711C24.6431 27.8602 24.583 26.5936 25.6931 26.2063L25.2125 25.9446C25.714 27.1746 24.5465 27.9727 23.5435 28.3627C23.0786 28.5459 23.2823 29.3048 23.7524 29.1216L23.7315 29.1059Z" fill="#00196C"/>
<path d="M4.33812 34.3902C4.35512 34.6328 4.29077 34.8741 4.15528 35.0759C4.09479 35.1559 4.01536 35.2196 3.92416 35.2612C3.83296 35.3027 3.73286 35.3209 3.6329 35.314H3.22021V33.4612H3.64596C3.74586 33.4548 3.84581 33.4732 3.93693 33.5147C4.02805 33.5563 4.10754 33.6197 4.16834 33.6994C4.2975 33.9054 4.35703 34.1476 4.33812 34.3902ZM4.10304 34.3902C4.10509 34.2828 4.09369 34.1755 4.06909 34.071C4.05062 33.9907 4.01789 33.9145 3.97245 33.8459C3.93589 33.7896 3.88553 33.7437 3.82618 33.7124C3.77064 33.6831 3.70876 33.6678 3.64596 33.6679H3.45529V35.1073H3.64596C3.70876 35.1074 3.77064 35.0922 3.82618 35.0628C3.88553 35.0316 3.93589 34.9856 3.97245 34.9293C4.01789 34.8607 4.05062 34.7845 4.06909 34.7043C4.09372 34.6015 4.10513 34.4959 4.10304 34.3902Z" fill="#00196C"/>
<path d="M5.59994 35.3128V33.7295L5.27083 33.9912L5.16113 33.808L5.59994 33.46H5.81673V35.3128H5.59994Z" fill="#00196C"/>
<path d="M7.16671 33.6746V34.2712H7.6891V34.4806H7.16671V35.318H6.93164V33.46H7.71522V33.6746H7.16671Z" fill="#00196C"/>
<path d="M9.25663 35.3128L8.9432 34.4859H8.73424V35.3128H8.50439V33.46H8.99544C9.05994 33.4592 9.12421 33.468 9.18611 33.4862C9.24491 33.5042 9.29922 33.5345 9.34543 33.5752C9.39297 33.6183 9.42966 33.6721 9.45252 33.7322C9.48035 33.8066 9.49365 33.8857 9.4917 33.9651C9.49397 34.0317 9.48424 34.0982 9.46297 34.1614C9.44627 34.2126 9.42062 34.2604 9.38722 34.3027C9.3586 34.3394 9.32419 34.3712 9.28536 34.3969C9.25276 34.4183 9.21643 34.4334 9.17827 34.4414L9.52566 35.3128H9.25663ZM9.24096 33.9729C9.24306 33.9202 9.23416 33.8676 9.21484 33.8185C9.20059 33.7811 9.17725 33.7478 9.14693 33.7217C9.11878 33.6976 9.08584 33.6798 9.05029 33.6694C9.01428 33.6611 8.97751 33.6568 8.94059 33.6563H8.73424V34.3027H8.95103C8.99083 34.3046 9.03057 34.2978 9.06754 34.2829C9.1045 34.268 9.13782 34.2453 9.16521 34.2163C9.19612 34.1841 9.22016 34.1459 9.23588 34.104C9.25159 34.0622 9.25865 34.0176 9.25663 33.9729H9.24096Z" fill="#00196C"/>
<path d="M11.1058 35.3128L11.0013 34.8784H10.4659L10.3588 35.3128H10.1211L10.586 33.46H10.8968L11.3513 35.3128H11.1058ZM10.7427 33.6798L10.5077 34.6926H10.9804L10.7427 33.6798Z" fill="#00196C"/>
<path d="M12.5003 35.313V33.7298L12.1712 33.9915L12.0615 33.8083L12.5134 33.4707H12.7302V35.3235L12.5003 35.313Z" fill="#00196C"/>
<path d="M14.7569 34.8008C14.758 34.8729 14.7465 34.9446 14.723 35.0127C14.7005 35.0764 14.6659 35.135 14.6211 35.1855C14.5773 35.236 14.5229 35.2763 14.4618 35.3032C14.3945 35.3335 14.3214 35.3487 14.2476 35.3477C14.1319 35.3523 14.018 35.3182 13.9237 35.2509C13.8324 35.1798 13.7672 35.0804 13.7383 34.9683L13.9472 34.9107C13.9662 34.9758 14.0022 35.0345 14.0517 35.0808C14.1027 35.126 14.1692 35.1494 14.2372 35.1462C14.2831 35.148 14.3285 35.1362 14.3678 35.1122C14.4041 35.0915 14.4353 35.0629 14.4592 35.0284C14.4841 34.9946 14.5027 34.9565 14.514 34.9159C14.5241 34.8757 14.5294 34.8344 14.5297 34.7929C14.533 34.7451 14.5263 34.6972 14.5101 34.6522C14.4939 34.6071 14.4686 34.5659 14.4357 34.5312C14.403 34.5011 14.3648 34.4777 14.3231 34.4624C14.2814 34.4472 14.2371 34.4403 14.1928 34.4422H14.1275V34.2538H14.198C14.2375 34.2564 14.277 34.25 14.3137 34.235C14.3503 34.2201 14.3831 34.197 14.4095 34.1675C14.4655 34.0992 14.4936 34.0122 14.4879 33.9241C14.4874 33.8888 14.483 33.8537 14.4748 33.8194C14.4648 33.7851 14.4499 33.7525 14.4304 33.7226C14.4097 33.693 14.383 33.668 14.3521 33.6493C14.3167 33.6308 14.2771 33.6218 14.2372 33.6231C14.1857 33.6224 14.1358 33.64 14.0961 33.6729C14.0551 33.7086 14.0229 33.7534 14.0021 33.8037L13.7984 33.7409C13.8168 33.6894 13.8443 33.6416 13.8793 33.5996C13.9094 33.5606 13.9466 33.5277 13.989 33.5027C14.028 33.4762 14.0713 33.4567 14.117 33.4452C14.1612 33.4328 14.2069 33.4267 14.2528 33.4269C14.3163 33.4255 14.3794 33.4371 14.4383 33.4609C14.4931 33.4828 14.5429 33.5158 14.5845 33.5577C14.6256 33.6006 14.6576 33.6513 14.6786 33.7069C14.702 33.7687 14.7135 33.8344 14.7125 33.9005C14.713 33.95 14.7069 33.9993 14.6942 34.0471C14.6844 34.0934 14.6667 34.1376 14.642 34.1779C14.6189 34.2171 14.5888 34.2517 14.5532 34.28C14.5188 34.3093 14.4774 34.3291 14.4331 34.3376C14.5287 34.3591 14.6133 34.415 14.6707 34.4946C14.7305 34.5852 14.7606 34.6922 14.7569 34.8008Z" fill="#00196C"/>
<path d="M16.4238 35.3128L16.3193 34.8784H15.7969L15.6898 35.3128H15.4521L15.9171 33.46H16.2279L16.6824 35.3128H16.4238ZM16.0607 33.6798L15.8257 34.6926H16.2984L16.0607 33.6798Z" fill="#00196C"/>
<path d="M18.2049 35.3128L18.1004 34.8784H17.565L17.4579 35.3128H17.2202L17.6851 33.46H17.996L18.4504 35.3128H18.2049ZM17.8419 33.6798L17.6068 34.6926H18.0795L17.8419 33.6798Z" fill="#00196C"/>
<path d="M20.1351 34.3866C20.1351 34.4581 20.1351 34.5314 20.1351 34.6064C20.1351 34.6814 20.1247 34.7547 20.1038 34.8262C20.0885 34.8947 20.0684 34.9621 20.0437 35.0278C20.02 35.0873 19.9874 35.1429 19.9471 35.1926C19.908 35.2392 19.8601 35.2775 19.806 35.3051C19.7479 35.3349 19.6832 35.3493 19.618 35.347C19.5528 35.3486 19.4883 35.3343 19.4299 35.3051C19.3771 35.2767 19.3301 35.2385 19.2915 35.1926C19.2502 35.1435 19.2176 35.0878 19.1948 35.0278C19.1678 34.9629 19.1477 34.8953 19.1348 34.8262C19.1188 34.7539 19.1084 34.6804 19.1034 34.6064C19.0996 34.5332 19.0996 34.4598 19.1034 34.3866C19.1041 34.2755 19.1111 34.1645 19.1243 34.0542C19.1376 33.9482 19.1648 33.8444 19.2053 33.7454C19.2407 33.6578 19.2951 33.5791 19.3646 33.5151C19.4377 33.4541 19.5307 33.4224 19.6258 33.4262C19.7209 33.4219 19.8142 33.4536 19.887 33.5151C19.9573 33.579 20.0126 33.6576 20.0489 33.7454C20.0897 33.8441 20.1161 33.9481 20.1273 34.0542C20.1362 34.1648 20.1388 34.2757 20.1351 34.3866ZM19.8948 34.3866C19.8948 34.322 19.8948 34.2462 19.8948 34.1589C19.8875 34.0761 19.8744 33.9939 19.8557 33.9129C19.8395 33.8431 19.8112 33.7766 19.7721 33.7167C19.7555 33.691 19.7326 33.6701 19.7056 33.6559C19.6786 33.6417 19.6484 33.6347 19.618 33.6355C19.5878 33.6346 19.558 33.6416 19.5314 33.6558C19.5048 33.6701 19.4824 33.691 19.4665 33.7167C19.4254 33.7759 19.3961 33.8425 19.3803 33.9129C19.359 33.9934 19.3459 34.0758 19.3411 34.1589C19.3411 34.2444 19.3411 34.3203 19.3411 34.3866C19.3411 34.4311 19.3411 34.4782 19.3411 34.5331C19.3411 34.5881 19.3411 34.6431 19.3542 34.698C19.3597 34.7527 19.3693 34.807 19.3829 34.8603C19.3938 34.9083 19.4105 34.9549 19.4325 34.999C19.4506 35.0377 19.4775 35.0718 19.5109 35.0984C19.5413 35.1247 19.5804 35.1387 19.6206 35.1377C19.6607 35.1382 19.6996 35.1243 19.7303 35.0984C19.7637 35.0718 19.7905 35.0377 19.8086 34.999C19.8316 34.955 19.8491 34.9084 19.8609 34.8603C19.8732 34.8067 19.8828 34.7526 19.8896 34.698C19.8896 34.6431 19.8896 34.5881 19.9027 34.5331C19.9157 34.4782 19.8948 34.4311 19.8948 34.3866Z" fill="#00196C"/>
<path d="M21.9032 34.3866C21.9032 34.4581 21.9032 34.5314 21.9032 34.6064C21.9032 34.6814 21.8927 34.7547 21.8719 34.8262C21.8565 34.8947 21.8365 34.9621 21.8118 35.0278C21.788 35.0873 21.7555 35.1429 21.7151 35.1926C21.6761 35.2392 21.6281 35.2775 21.5741 35.3051C21.516 35.3349 21.4513 35.3493 21.386 35.347C21.3209 35.3486 21.2563 35.3343 21.198 35.3051C21.1452 35.2767 21.0982 35.2385 21.0595 35.1926C21.0183 35.1435 20.9856 35.0878 20.9629 35.0278C20.9359 34.9629 20.9157 34.8953 20.9028 34.8262C20.8869 34.7539 20.8764 34.6804 20.8715 34.6064C20.8677 34.5332 20.8677 34.4598 20.8715 34.3866C20.8722 34.2755 20.8792 34.1645 20.8924 34.0542C20.9057 33.9482 20.9329 33.8444 20.9734 33.7454C21.0088 33.6578 21.0632 33.5791 21.1327 33.5151C21.2057 33.4541 21.2988 33.4224 21.3939 33.4262C21.489 33.4219 21.5823 33.4536 21.6551 33.5151C21.7254 33.579 21.7807 33.6576 21.817 33.7454C21.8578 33.8441 21.8842 33.9481 21.8954 34.0542C21.9055 34.1647 21.9081 34.2758 21.9032 34.3866ZM21.6629 34.3866C21.6629 34.322 21.6629 34.2462 21.6629 34.1589C21.6568 34.076 21.6437 33.9937 21.6237 33.9129C21.6076 33.8431 21.5793 33.7766 21.5401 33.7167C21.5236 33.691 21.5007 33.6701 21.4737 33.6559C21.4467 33.6417 21.4165 33.6347 21.386 33.6355C21.3559 33.6346 21.3261 33.6416 21.2995 33.6558C21.2729 33.6701 21.2505 33.691 21.2345 33.7167C21.1935 33.7759 21.1642 33.8425 21.1484 33.9129C21.1271 33.9934 21.1139 34.0758 21.1092 34.1589C21.1092 34.2444 21.1092 34.3203 21.1092 34.3866C21.1092 34.4311 21.1092 34.4782 21.1092 34.5331C21.1092 34.5881 21.1092 34.6431 21.1092 34.698C21.1147 34.7527 21.1243 34.807 21.1379 34.8603C21.1488 34.9083 21.1655 34.9549 21.1875 34.999C21.2056 35.0377 21.2325 35.0718 21.2659 35.0984C21.2963 35.1247 21.3354 35.1387 21.3756 35.1377C21.4157 35.1382 21.4546 35.1243 21.4853 35.0984C21.5187 35.0718 21.5455 35.0377 21.5636 34.999C21.5866 34.955 21.6041 34.9084 21.6159 34.8603C21.6282 34.8067 21.6378 34.7526 21.6446 34.698C21.6446 34.6431 21.6446 34.5881 21.6577 34.5331C21.6707 34.4782 21.6629 34.4311 21.6629 34.3866Z" fill="#00196C"/>
<path d="M23.6718 34.3866C23.6718 34.4581 23.6718 34.5314 23.6718 34.6064C23.6718 34.6814 23.6613 34.7547 23.6404 34.8262C23.6251 34.8947 23.605 34.9621 23.5803 35.0278C23.5566 35.0873 23.524 35.1429 23.4837 35.1926C23.4447 35.2392 23.3967 35.2775 23.3426 35.3051C23.2845 35.3349 23.2198 35.3493 23.1546 35.347C23.0894 35.3486 23.0249 35.3343 22.9665 35.3051C22.9137 35.2767 22.8668 35.2385 22.8281 35.1926C22.7869 35.1435 22.7542 35.0878 22.7315 35.0278C22.7044 34.9629 22.6843 34.8953 22.6714 34.8262C22.6555 34.7539 22.645 34.6804 22.64 34.6064C22.6363 34.5332 22.6363 34.4598 22.64 34.3866C22.6407 34.2755 22.6477 34.1645 22.6609 34.0542C22.6742 33.9482 22.7015 33.8444 22.7419 33.7454C22.7773 33.6578 22.8318 33.5791 22.9012 33.5151C22.9743 33.4541 23.0674 33.4224 23.1624 33.4262C23.2576 33.4219 23.3508 33.4536 23.4236 33.5151C23.4939 33.579 23.5492 33.6576 23.5856 33.7454C23.6263 33.8441 23.6527 33.9481 23.6639 34.0542C23.6741 34.1647 23.6767 34.2758 23.6718 34.3866ZM23.4315 34.3866C23.4315 34.322 23.4315 34.2462 23.4315 34.1589C23.4254 34.076 23.4123 33.9937 23.3923 33.9129C23.3761 33.8431 23.3479 33.7766 23.3087 33.7167C23.2921 33.691 23.2692 33.6701 23.2422 33.6559C23.2153 33.6417 23.1851 33.6347 23.1546 33.6355C23.1245 33.6346 23.0946 33.6416 23.068 33.6558C23.0415 33.6701 23.0191 33.691 23.0031 33.7167C22.962 33.7759 22.9328 33.8425 22.9169 33.9129C22.8956 33.9934 22.8825 34.0758 22.8777 34.1589C22.8777 34.2444 22.8777 34.3203 22.8777 34.3866C22.8777 34.4311 22.8777 34.4782 22.8777 34.5331C22.8777 34.5881 22.8777 34.6431 22.8777 34.698C22.8833 34.7527 22.8929 34.807 22.9065 34.8603C22.9174 34.9083 22.9341 34.9549 22.9561 34.999C22.9742 35.0377 23.001 35.0718 23.0344 35.0984C23.0649 35.1247 23.104 35.1387 23.1441 35.1377C23.1842 35.1382 23.2232 35.1243 23.2538 35.0984C23.2873 35.0718 23.3141 35.0377 23.3322 34.999C23.3552 34.955 23.3727 34.9084 23.3844 34.8603C23.3968 34.8067 23.4064 34.7526 23.4132 34.698C23.4132 34.6431 23.4132 34.5881 23.4132 34.5331C23.4132 34.4782 23.4315 34.4311 23.4315 34.3866Z" fill="#00196C"/>
<path d="M25.4506 34.3866C25.4506 34.4581 25.4506 34.5314 25.4506 34.6064C25.4506 34.6814 25.4401 34.7547 25.4192 34.8262C25.4039 34.8947 25.3838 34.9621 25.3591 35.0278C25.3354 35.0873 25.3028 35.1429 25.2625 35.1926C25.2235 35.2392 25.1755 35.2775 25.1215 35.3052C25.0626 35.3327 24.9984 35.347 24.9334 35.347C24.8684 35.347 24.8042 35.3327 24.7453 35.3052C24.6921 35.2774 24.645 35.2391 24.6069 35.1926C24.5657 35.1435 24.533 35.0878 24.5103 35.0278C24.4832 34.9629 24.4631 34.8953 24.4502 34.8262C24.4343 34.7539 24.4238 34.6804 24.4189 34.6064C24.4151 34.5332 24.4151 34.4598 24.4189 34.3866C24.4196 34.2755 24.4265 34.1645 24.4397 34.0542C24.4518 33.9479 24.4791 33.8439 24.5207 33.7454C24.5562 33.6578 24.6106 33.5791 24.68 33.5151C24.7531 33.4541 24.8462 33.4224 24.9412 33.4262C25.0364 33.4219 25.1296 33.4536 25.2024 33.5151C25.2727 33.579 25.328 33.6576 25.3644 33.7454C25.4051 33.8441 25.4315 33.9481 25.4427 34.0542C25.4529 34.1647 25.4555 34.2758 25.4506 34.3866ZM25.2103 34.3866C25.2103 34.322 25.2103 34.2462 25.2103 34.1589C25.2042 34.076 25.1911 33.9937 25.1711 33.9129C25.155 33.8431 25.1267 33.7766 25.0875 33.7167C25.0709 33.691 25.048 33.6701 25.0211 33.6559C24.9941 33.6417 24.9639 33.6347 24.9334 33.6355C24.9032 33.6343 24.8733 33.6412 24.8467 33.6555C24.82 33.6697 24.7977 33.6909 24.7819 33.7167C24.7408 33.7759 24.7116 33.8425 24.6957 33.9129C24.6744 33.9934 24.6613 34.0758 24.6565 34.1589C24.6565 34.2444 24.6565 34.3203 24.6565 34.3866C24.6565 34.4311 24.6565 34.4782 24.6565 34.5331C24.6565 34.5881 24.6565 34.6431 24.6696 34.698C24.6751 34.7527 24.6847 34.807 24.6983 34.8603C24.7093 34.9083 24.7259 34.9549 24.748 34.999C24.7661 35.0377 24.7929 35.0718 24.8263 35.0984C24.8565 35.1251 24.8958 35.1392 24.936 35.1377C24.9761 35.1382 25.015 35.1243 25.0457 35.0984C25.0791 35.0718 25.106 35.0377 25.1241 34.999C25.147 34.955 25.1646 34.9084 25.1763 34.8603C25.1886 34.8067 25.1982 34.7526 25.205 34.698C25.205 34.6431 25.205 34.5881 25.2181 34.5331C25.2312 34.4782 25.1894 34.4311 25.1894 34.3866H25.2103Z" fill="#00196C"/>
<path d="M27.1326 33.9268C27.1327 33.9825 27.1257 34.0379 27.1117 34.0917C27.0955 34.1437 27.0754 34.1945 27.0516 34.2435C27.0249 34.2949 26.9952 34.3447 26.9628 34.3926L26.8505 34.5497L26.443 35.1071H27.109V35.3138H26.1844V35.0966L26.7068 34.3926C26.7625 34.3206 26.8098 34.2425 26.8479 34.1597C26.8801 34.0909 26.8971 34.0159 26.8975 33.9399C26.9 33.8634 26.88 33.7879 26.84 33.7227C26.8215 33.6927 26.7952 33.6683 26.7639 33.6521C26.7326 33.636 26.6975 33.6287 26.6624 33.6311C26.6303 33.63 26.5984 33.6357 26.5687 33.6479C26.5389 33.6601 26.5121 33.6785 26.49 33.7018C26.4402 33.7611 26.4092 33.834 26.4012 33.9111L26.1792 33.8876C26.1944 33.7568 26.2534 33.6351 26.3464 33.5421C26.4391 33.4643 26.5572 33.4233 26.6781 33.427C26.7463 33.4256 26.814 33.4389 26.8766 33.4662C26.9314 33.4903 26.9805 33.526 27.0202 33.5709C27.0598 33.6179 27.09 33.6721 27.109 33.7306C27.1265 33.7944 27.1344 33.8606 27.1326 33.9268Z" fill="#00196C"/>
<path d="M28.971 34.7432C28.9724 34.8318 28.9601 34.9201 28.9344 35.0049C28.911 35.0756 28.8747 35.1412 28.8273 35.1986C28.7822 35.2512 28.726 35.2932 28.6628 35.3216C28.5951 35.3505 28.5221 35.3647 28.4486 35.3634C28.3748 35.3644 28.3017 35.3492 28.2344 35.3189C28.1704 35.292 28.1139 35.2498 28.0699 35.1959C28.0224 35.1401 27.9869 35.075 27.9654 35.0049C27.9396 34.9201 27.9273 34.8318 27.9288 34.7432C27.9294 34.6546 27.9426 34.5664 27.968 34.4815C27.9922 34.3911 28.0254 34.3035 28.0673 34.2198L28.4434 33.4688H28.7046L28.3128 34.2251C28.3412 34.1987 28.3751 34.1791 28.412 34.1675C28.4464 34.1553 28.4827 34.1491 28.5191 34.1492C28.5716 34.1494 28.6236 34.1582 28.6732 34.1753C28.7285 34.1953 28.7785 34.2275 28.8195 34.2695C28.8692 34.3211 28.9075 34.3827 28.9318 34.4501C28.9625 34.5446 28.9757 34.6439 28.971 34.7432ZM28.7359 34.7432C28.7395 34.6421 28.7161 34.5418 28.668 34.4527C28.632 34.4011 28.5787 34.3643 28.5177 34.3489C28.4568 34.3335 28.3924 34.3406 28.3363 34.369C28.2993 34.3899 28.2679 34.4195 28.2449 34.4553C28.2171 34.495 28.1968 34.5393 28.1848 34.5862C28.1711 34.6392 28.1641 34.6937 28.1639 34.7484C28.1588 34.8549 28.1852 34.9605 28.2397 35.052C28.2639 35.0855 28.2957 35.1128 28.3324 35.1316C28.3692 35.1504 28.4099 35.1602 28.4512 35.1602C28.4925 35.1602 28.5332 35.1504 28.57 35.1316C28.6068 35.1128 28.6386 35.0855 28.6628 35.052C28.7165 34.9584 28.7419 34.8511 28.7359 34.7432Z" fill="#00196C"/>
<path d="M30.2093 35.313V33.7298L29.8802 33.9915L29.7705 33.8083L30.2224 33.4707H30.4392V35.3235L30.2093 35.313Z" fill="#00196C"/>
<path d="M32.3117 34.8862V35.3128H32.1001V34.8862H31.4341V34.6742L32.0113 33.46H32.3117V34.6899H32.5311V34.8862H32.3117ZM32.1053 33.6876L31.6535 34.6899H32.1106L32.1053 33.6876Z" fill="#00196C"/>
<path d="M34.2811 34.3872C34.2811 34.4587 34.2811 34.532 34.2811 34.607C34.2811 34.682 34.2707 34.7553 34.2498 34.8268C34.2345 34.8953 34.2144 34.9626 34.1897 35.0283C34.166 35.0879 34.1334 35.1434 34.0931 35.1932C34.054 35.2398 34.0061 35.278 33.952 35.3057C33.8932 35.3333 33.829 35.3476 33.764 35.3476C33.699 35.3476 33.6348 35.3333 33.5759 35.3057C33.5226 35.278 33.4756 35.2397 33.4375 35.1932C33.3962 35.1441 33.3636 35.0883 33.3408 35.0283C33.3138 34.9635 33.2937 34.8959 33.2808 34.8268C33.2648 34.7544 33.2544 34.681 33.2494 34.607C33.2456 34.5338 33.2456 34.4604 33.2494 34.3872C33.2501 34.2761 33.2571 34.1651 33.2703 34.0548C33.2824 33.9485 33.3096 33.8445 33.3513 33.746C33.3867 33.6584 33.4411 33.5797 33.5106 33.5157C33.586 33.4592 33.6776 33.4287 33.7718 33.4287C33.866 33.4287 33.9576 33.4592 34.033 33.5157C34.1033 33.5796 34.1586 33.6582 34.1949 33.746C34.2357 33.8447 34.2621 33.9487 34.2733 34.0548C34.2822 34.1654 34.2848 34.2763 34.2811 34.3872ZM34.0408 34.3872C34.0408 34.3226 34.0408 34.2467 34.0408 34.1595C34.0335 34.0767 34.0204 33.9945 34.0017 33.9135C33.9855 33.8437 33.9572 33.7772 33.9181 33.7172C33.9015 33.6916 33.8786 33.6707 33.8516 33.6565C33.8246 33.6422 33.7944 33.6352 33.764 33.6361C33.7338 33.6349 33.7039 33.6418 33.6772 33.6561C33.6506 33.6703 33.6282 33.6914 33.6125 33.7172C33.5714 33.7765 33.5421 33.8431 33.5263 33.9135C33.505 33.994 33.4919 34.0764 33.4871 34.1595C33.4871 34.245 33.4871 34.3209 33.4871 34.3872C33.4871 34.4317 33.4871 34.4788 33.4871 34.5337C33.4871 34.5887 33.4871 34.6436 33.5002 34.6986C33.5057 34.7533 33.5153 34.8076 33.5289 34.8608C33.5398 34.9089 33.5565 34.9555 33.5785 34.9995C33.5966 35.0383 33.6235 35.0723 33.6569 35.099C33.6871 35.1257 33.7263 35.1398 33.7666 35.1382C33.8067 35.1388 33.8456 35.1248 33.8763 35.099C33.9097 35.0723 33.9365 35.0383 33.9546 34.9995C33.9776 34.9556 33.9951 34.909 34.0069 34.8608C34.0192 34.8073 34.0288 34.7531 34.0356 34.6986C34.0356 34.6436 34.0356 34.5887 34.0356 34.5337C34.0356 34.4788 34.0408 34.4317 34.0408 34.3872Z" fill="#00196C"/>
<path d="M35.514 35.313V33.7298L35.1849 33.9915L35.0752 33.8083L35.5271 33.4707H35.7438V35.3235L35.514 35.313Z" fill="#00196C"/>
<path d="M37.8178 34.3872C37.8178 34.4587 37.8178 34.532 37.8178 34.607C37.8178 34.682 37.8073 34.7553 37.7864 34.8268C37.7711 34.8953 37.751 34.9626 37.7263 35.0283C37.7026 35.0879 37.67 35.1434 37.6297 35.1932C37.5907 35.2398 37.5427 35.278 37.4886 35.3057C37.4298 35.3333 37.3656 35.3476 37.3006 35.3476C37.2356 35.3476 37.1714 35.3333 37.1125 35.3057C37.0593 35.278 37.0122 35.2397 36.9741 35.1932C36.9329 35.1441 36.9002 35.0883 36.8775 35.0283C36.8504 34.9635 36.8303 34.8959 36.8174 34.8268C36.8015 34.7544 36.791 34.681 36.786 34.607C36.7823 34.5338 36.7823 34.4604 36.786 34.3872C36.7867 34.2761 36.7937 34.1651 36.8069 34.0548C36.819 33.9485 36.8463 33.8445 36.8879 33.746C36.9233 33.6584 36.9778 33.5797 37.0472 33.5157C37.1226 33.4592 37.2143 33.4287 37.3084 33.4287C37.4026 33.4287 37.4942 33.4592 37.5696 33.5157C37.6399 33.5796 37.6952 33.6582 37.7316 33.746C37.7723 33.8447 37.7987 33.9487 37.8099 34.0548C37.8188 34.1654 37.8214 34.2763 37.8178 34.3872ZM37.5775 34.3872C37.5775 34.3226 37.5775 34.2467 37.5775 34.1595C37.5701 34.0767 37.557 33.9945 37.5383 33.9135C37.5221 33.8437 37.4939 33.7772 37.4547 33.7172C37.4381 33.6916 37.4152 33.6707 37.3882 33.6565C37.3613 33.6422 37.3311 33.6352 37.3006 33.6361C37.2704 33.6349 37.2405 33.6418 37.2138 33.6561C37.1872 33.6703 37.1649 33.6914 37.1491 33.7172C37.108 33.7765 37.0788 33.8431 37.0629 33.9135C37.0416 33.994 37.0285 34.0764 37.0237 34.1595C37.0237 34.245 37.0237 34.3209 37.0237 34.3872C37.0237 34.4317 37.0237 34.4788 37.0237 34.5337C37.0237 34.5887 37.0237 34.6436 37.0237 34.6986C37.0293 34.7533 37.0389 34.8076 37.0525 34.8608C37.0634 34.9089 37.0801 34.9555 37.1021 34.9995C37.1202 35.0383 37.147 35.0723 37.1804 35.099C37.2106 35.1257 37.2499 35.1398 37.2901 35.1382C37.3302 35.1388 37.3692 35.1248 37.3998 35.099C37.4333 35.0723 37.4601 35.0383 37.4782 34.9995C37.5012 34.9556 37.5187 34.909 37.5304 34.8608C37.5428 34.8073 37.5524 34.7531 37.5592 34.6986C37.5592 34.6436 37.5592 34.5887 37.5592 34.5337C37.5592 34.4788 37.5775 34.4317 37.5775 34.3872Z" fill="#00196C"/>
<path d="M39.0506 35.313V33.7298L38.7215 33.9915L38.6118 33.8083L39.0637 33.4707H39.2935V35.3235L39.0506 35.313Z" fill="#00196C"/>
<path d="M40.9364 35.2136C40.8965 35.2629 40.8452 35.3017 40.787 35.3268C40.7287 35.3519 40.6653 35.3624 40.6021 35.3575C40.5074 35.3592 40.415 35.3277 40.3409 35.2686C40.2678 35.2064 40.2173 35.1218 40.1973 35.0278L40.4036 34.9414C40.4165 34.9916 40.4406 35.0381 40.4741 35.0775C40.4907 35.098 40.5119 35.1144 40.5359 35.1253C40.56 35.1362 40.5862 35.1414 40.6126 35.1403C40.6469 35.1431 40.6813 35.135 40.7108 35.1172C40.7404 35.0993 40.7635 35.0726 40.7771 35.0409C40.8108 34.958 40.826 34.8686 40.8215 34.7792V33.4707H41.0566V34.8132C41.0591 34.956 41.0171 35.0959 40.9364 35.2136Z" fill="#00196C"/>
<path d="M42.9897 34.9412C42.9735 35.0184 42.9415 35.0915 42.8957 35.1558C42.8527 35.2185 42.7942 35.269 42.7259 35.3023C42.6445 35.3414 42.5549 35.3602 42.4647 35.3573C42.3744 35.3612 42.2846 35.3423 42.2035 35.3023C42.1352 35.269 42.0767 35.2185 42.0337 35.1558C41.9898 35.0908 41.9588 35.0179 41.9423 34.9412C41.9232 34.8552 41.9136 34.7675 41.9136 34.6795V33.46H42.1486V34.6533C42.1484 34.7138 42.1537 34.7743 42.1643 34.8339C42.1713 34.8888 42.1881 34.942 42.2139 34.9909C42.2355 35.035 42.269 35.0722 42.3106 35.0982C42.3574 35.1255 42.4105 35.14 42.4647 35.14C42.5188 35.14 42.572 35.1255 42.6188 35.0982C42.6604 35.0722 42.6939 35.035 42.7154 34.9909C42.7401 34.9415 42.7569 34.8885 42.7651 34.8339C42.7735 34.774 42.7779 34.7137 42.7781 34.6533V33.46H43.0132V34.6768C43.0164 34.7656 43.0085 34.8544 42.9897 34.9412Z" fill="#00196C"/>
<path d="M43.9087 35.3128V33.46H44.1438V35.0929H44.6661V35.3128H43.9087Z" fill="#00196C"/>
<path d="M45.3926 35.3128V33.46H46.1762V33.6693H45.625V34.2529H46.1474V34.4492H45.625V35.1008H46.2023V35.3128H45.3926Z" fill="#00196C"/>
<path d="M47.8505 34.8214C47.8519 34.8982 47.8385 34.9746 47.8113 35.0464C47.7888 35.1098 47.7532 35.1678 47.7069 35.2165C47.6614 35.2619 47.6072 35.2976 47.5475 35.3212C47.4852 35.3459 47.4187 35.3583 47.3516 35.3578C47.2612 35.357 47.1721 35.3365 47.0904 35.2977C47.0108 35.2639 46.9408 35.2108 46.8867 35.1433L47.0252 34.9731C47.065 35.0258 47.117 35.0679 47.1766 35.0961C47.2326 35.1244 47.2942 35.1396 47.3569 35.1406C47.3927 35.1416 47.4284 35.1351 47.4617 35.1215C47.4949 35.108 47.525 35.0878 47.5501 35.0621C47.588 35.0125 47.6126 34.954 47.6218 34.8922C47.6309 34.8304 47.6242 34.7673 47.6024 34.7088C47.5865 34.6729 47.5644 34.6402 47.5371 34.612C47.5082 34.5831 47.4767 34.5568 47.4431 34.5335C47.4051 34.5096 47.3658 34.4878 47.3255 34.4681C47.2762 34.4443 47.229 34.4163 47.1845 34.3843C47.1398 34.3552 47.0994 34.3199 47.0643 34.2797C47.0283 34.2374 47.0008 34.1885 46.9834 34.1357C46.9608 34.0737 46.9502 34.008 46.952 33.9421C46.9498 33.8624 46.964 33.7831 46.9938 33.7092C47.0197 33.6472 47.0579 33.5911 47.1061 33.5443C47.1502 33.5004 47.2039 33.4672 47.2628 33.4475C47.3207 33.4269 47.3816 33.4163 47.4431 33.4161C47.5253 33.4151 47.6069 33.4303 47.6834 33.4605C47.7525 33.4886 47.813 33.5347 47.8584 33.594L47.7173 33.7615C47.6873 33.7204 47.648 33.6871 47.6025 33.6643C47.5571 33.6416 47.5069 33.63 47.4561 33.6306C47.4233 33.6306 47.3906 33.6359 47.3595 33.6463C47.3249 33.6595 47.2936 33.6798 47.2675 33.706C47.2414 33.7321 47.2211 33.7635 47.208 33.7981C47.1913 33.8424 47.1833 33.8895 47.1845 33.9368C47.1834 33.9782 47.1914 34.0193 47.208 34.0572C47.2213 34.0917 47.2418 34.1229 47.2681 34.1488C47.2925 34.1779 47.3216 34.2027 47.3542 34.2221C47.3881 34.2461 47.4239 34.2671 47.4613 34.2849C47.5106 34.3094 47.5586 34.3365 47.605 34.366C47.6518 34.3976 47.6947 34.4345 47.733 34.4759C47.7726 34.5189 47.8044 34.5685 47.827 34.6225C47.8476 34.6866 47.8555 34.7542 47.8505 34.8214Z" fill="#00196C"/>
<path d="M50.0025 34.0603L48.9969 34.5209L49.9973 34.9815V35.204L48.6704 34.5994V34.4424L50.0025 33.8379V34.0603Z" fill="#00196C"/>
<path d="M51.7578 34.8214C51.7591 34.8982 51.7458 34.9746 51.7186 35.0464C51.696 35.1098 51.6604 35.1678 51.6141 35.2165C51.5687 35.2619 51.5144 35.2976 51.4548 35.3212C51.3924 35.3459 51.3259 35.3583 51.2589 35.3578C51.1685 35.357 51.0793 35.3365 50.9977 35.2977C50.9181 35.2639 50.8481 35.2108 50.7939 35.1433L50.9324 34.9731C50.9723 35.0258 51.0242 35.0679 51.0839 35.0961C51.1398 35.1244 51.2014 35.1396 51.2641 35.1406C51.3 35.1416 51.3356 35.1351 51.3689 35.1215C51.4021 35.108 51.4323 35.0878 51.4574 35.0621C51.4952 35.0125 51.5199 34.954 51.529 34.8922C51.5381 34.8304 51.5315 34.7673 51.5096 34.7088C51.4937 34.6729 51.4716 34.6402 51.4443 34.612C51.4154 34.5831 51.3839 34.5568 51.3503 34.5335C51.3123 34.5096 51.2731 34.4878 51.2327 34.4681C51.1834 34.4443 51.1362 34.4163 51.0917 34.3843C51.047 34.3552 51.0066 34.3199 50.9716 34.2797C50.9355 34.2374 50.908 34.1885 50.8906 34.1357C50.868 34.0737 50.8574 34.008 50.8592 33.9421C50.857 33.8624 50.8712 33.7831 50.901 33.7092C50.927 33.6472 50.9652 33.5911 51.0133 33.5443C51.0575 33.5004 51.1111 33.4672 51.1701 33.4475C51.2279 33.4269 51.2889 33.4163 51.3503 33.4161C51.4325 33.4151 51.5141 33.4303 51.5906 33.4605C51.6598 33.4886 51.7202 33.5347 51.7656 33.594L51.6245 33.7615C51.5946 33.7204 51.5552 33.6871 51.5098 33.6643C51.4644 33.6416 51.4141 33.63 51.3633 33.6306C51.3305 33.6306 51.2978 33.6359 51.2667 33.6463C51.2322 33.6595 51.2008 33.6798 51.1747 33.706C51.1486 33.7321 51.1283 33.7635 51.1152 33.7981C51.0985 33.8424 51.0905 33.8895 51.0917 33.9368C51.0907 33.9782 51.0987 34.0193 51.1152 34.0572C51.1286 34.0917 51.149 34.1229 51.1753 34.1488C51.1997 34.1779 51.2288 34.2027 51.2615 34.2221C51.2953 34.2461 51.3311 34.2671 51.3686 34.2849C51.4178 34.3094 51.4658 34.3365 51.5122 34.366C51.559 34.3976 51.6019 34.4345 51.6402 34.4759C51.6798 34.5189 51.7117 34.5685 51.7342 34.6225C51.7548 34.6866 51.7628 34.7542 51.7578 34.8214Z" fill="#00196C"/>
<path d="M53.5415 33.9807C53.5429 34.061 53.5296 34.1408 53.5023 34.2163C53.4797 34.2789 53.4441 34.336 53.3978 34.3838C53.3542 34.4271 53.3028 34.4617 53.2463 34.4858C53.1891 34.5089 53.1278 34.5205 53.0661 34.5198H52.8049V35.3049H52.5698V33.46H53.04C53.0974 33.4602 53.1544 33.4682 53.2097 33.4835C53.2679 33.5017 53.322 33.5311 53.3691 33.5699C53.4191 33.6135 53.4585 33.6681 53.484 33.7295C53.5212 33.8081 53.5408 33.8938 53.5415 33.9807ZM53.3064 33.9807C53.3102 33.9366 53.3053 33.8921 53.2918 33.8499C53.2784 33.8076 53.2567 33.7685 53.228 33.7347C53.1736 33.6838 53.1013 33.6566 53.0269 33.6588H52.8153V34.3209H53.0269C53.0647 34.322 53.1022 34.3148 53.1369 34.2999C53.1717 34.285 53.2027 34.2627 53.228 34.2346C53.285 34.1638 53.313 34.074 53.3064 33.9834V33.9807Z" fill="#00196C"/>
<path d="M55.276 34.8059C55.2767 34.8808 55.2643 34.9551 55.2395 35.0257C55.2176 35.0889 55.1829 35.1468 55.1376 35.1958C55.0928 35.2451 55.0374 35.2836 54.9757 35.3084C54.9066 35.3354 54.833 35.3487 54.7589 35.3476C54.6865 35.3487 54.6145 35.3354 54.5473 35.3084C54.4852 35.2842 54.4297 35.2457 54.3854 35.1958C54.3393 35.1469 54.3037 35.089 54.2809 35.0257C54.257 34.955 54.2455 34.8806 54.2469 34.8059C54.2429 34.696 54.2721 34.5875 54.3305 34.4945C54.3808 34.4164 54.4565 34.3582 54.5447 34.3296C54.4653 34.2988 54.3989 34.2415 54.3567 34.1674C54.31 34.0883 54.2873 33.9974 54.2914 33.9057C54.2916 33.8426 54.3013 33.78 54.3201 33.7199C54.3388 33.6636 54.369 33.6119 54.4089 33.5681C54.4491 33.5226 54.4991 33.4868 54.5552 33.4634C54.6875 33.4145 54.8329 33.4145 54.9652 33.4634C55.022 33.4868 55.0729 33.5225 55.1141 33.5681C55.1539 33.6124 55.1849 33.6639 55.2055 33.7199C55.2244 33.78 55.234 33.8426 55.2343 33.9057C55.2378 33.997 55.2161 34.0876 55.1716 34.1674C55.1284 34.2417 55.0611 34.2989 54.9809 34.3296C55.0685 34.3607 55.1437 34.4195 55.1951 34.4971C55.2527 34.5894 55.281 34.6971 55.276 34.8059ZM55.0357 34.8059C55.0386 34.7129 55.0121 34.6213 54.96 34.5442C54.9355 34.5146 54.9048 34.4907 54.87 34.4744C54.8352 34.458 54.7973 34.4495 54.7589 34.4495C54.7205 34.4495 54.6825 34.458 54.6478 34.4744C54.613 34.4907 54.5823 34.5146 54.5578 34.5442C54.5057 34.6213 54.4791 34.7129 54.482 34.8059C54.4812 34.8545 54.4873 34.903 54.5003 34.9498C54.5122 34.991 54.5307 35.0299 54.5552 35.065C54.5773 35.097 54.6069 35.123 54.6413 35.1409C54.6775 35.1602 54.7179 35.1701 54.7589 35.1697C54.7998 35.1694 54.84 35.1596 54.8764 35.1409C54.9109 35.123 54.9405 35.097 54.9626 35.065C54.9871 35.0299 55.0056 34.991 55.0175 34.9498C55.0315 34.8996 55.0376 34.8475 55.0357 34.7954V34.8059ZM54.9992 33.9318C55.0023 33.8513 54.9804 33.7717 54.9365 33.7042C54.9169 33.6754 54.8903 33.6521 54.8592 33.6365C54.8282 33.621 54.7936 33.6136 54.7589 33.6152C54.7241 33.6131 54.6894 33.6202 54.6582 33.6358C54.627 33.6514 54.6005 33.675 54.5813 33.7042C54.5394 33.7725 54.5185 33.8517 54.5212 33.9318C54.5207 33.9727 54.5269 34.0134 54.5395 34.0522C54.549 34.0891 54.564 34.1244 54.5839 34.1569C54.6045 34.185 54.6302 34.209 54.6596 34.2276C54.6899 34.2448 54.7241 34.2538 54.7589 34.2538C54.7937 34.2538 54.8279 34.2448 54.8581 34.2276C54.8876 34.209 54.9133 34.185 54.9339 34.1569C54.9556 34.1247 54.9723 34.0894 54.9835 34.0522C54.995 34.0096 55.0002 33.9655 54.9992 33.9214V33.9318Z" fill="#00196C"/>
</svg>
