<svg width="55" height="41" viewBox="0 0 55 41" fill="none" xmlns="http://www.w3.org/2000/svg">
<path d="M48.4201 1.0791H6.58008C3.81865 1.0791 1.58008 3.31767 1.58008 6.0791V34.9212C1.58008 37.6826 3.81866 39.9212 6.58008 39.9212H48.4201C51.1815 39.9212 53.4201 37.6826 53.4201 34.9212V6.0791C53.4201 3.31768 51.1815 1.0791 48.4201 1.0791Z" fill="white" stroke="#00196C" stroke-width="2" stroke-linejoin="round"/>
<path opacity="0.5" d="M26.7318 28.6491L23.6275 35.5517C23.4514 35.9433 22.8961 35.9457 22.7169 35.5557L21.9227 33.8273C21.8225 33.6092 21.5813 33.4932 21.3482 33.5509L19.2094 34.0802C18.8045 34.1805 18.4622 33.7706 18.6332 33.3903L21.7676 26.4209" fill="#00196C"/>
<path opacity="0.5" d="M32.6775 26.3752L36.4648 32.9287C36.6797 33.3004 36.3567 33.7518 35.9352 33.6689L34.0677 33.3012C33.832 33.2547 33.5966 33.3823 33.5071 33.605L32.6856 35.6474C32.53 36.0341 31.997 36.0716 31.7883 35.7106L27.9644 29.0938" fill="#00196C"/>
<path d="M18.8599 12.4326H36.1399" stroke="#00196C" stroke-width="2" stroke-miterlimit="10" stroke-linecap="round"/>
<path d="M14.54 8.11621H40.46" stroke="#00196C" stroke-width="2" stroke-miterlimit="10" stroke-linecap="round"/>
<path d="M27.2842 15.8848L28.7206 18.4696L31.291 17.2844L31.0426 20.2869L33.7642 20.9528L31.9282 23.2216L33.7642 25.4904L31.0426 26.1563L31.291 29.1588L28.7206 27.9736L27.2842 30.5585L25.8478 27.9736L23.2774 29.1588L23.5258 26.1563L20.8042 25.4904L22.6402 23.2216L20.8042 20.9528L23.5258 20.2869L23.2774 17.2844L25.8478 18.4696L27.2842 15.8848Z" stroke="#00196C" stroke-width="2" stroke-linejoin="round"/>
<path d="M6.98008 1.0791C6.98008 4.057 4.56088 6.47384 1.58008 6.47384" stroke="#00196C" stroke-width="2" stroke-linejoin="round"/>
<path d="M1.58008 34.5264C4.56088 34.5264 6.98008 36.9432 6.98008 39.9211" stroke="#00196C" stroke-width="2" stroke-linejoin="round"/>
<path d="M48.02 39.9211C48.02 36.9432 50.4392 34.5264 53.42 34.5264" stroke="#00196C" stroke-width="2" stroke-linejoin="round"/>
<path d="M53.42 6.47384C50.4392 6.47384 48.02 4.057 48.02 1.0791" stroke="#00196C" stroke-width="2" stroke-linejoin="round"/>
</svg>
