<svg width="31" height="48" viewBox="0 0 31 48" fill="none" xmlns="http://www.w3.org/2000/svg">
<g clip-path="url(#clip0_3490_64897)">
<path d="M24.6501 0.698242H6.34912C3.5877 0.698242 1.34912 2.93682 1.34912 5.69824V42.3009C1.34912 45.0623 3.5877 47.3009 6.34912 47.3009H24.6501C27.4116 47.3009 29.6501 45.0623 29.6501 42.3009V5.69824C29.6501 2.93682 27.4116 0.698242 24.6501 0.698242Z" fill="white" stroke="#00196C" stroke-width="2" stroke-linejoin="round"/>
<path d="M5.19727 16.1602H25.4408" stroke="#00196C" stroke-width="2" stroke-miterlimit="10" stroke-linecap="round"/>
<path d="M5.19727 32.7725H25.4408" stroke="#00196C" stroke-width="2" stroke-miterlimit="10" stroke-linecap="round"/>
<path d="M5.19727 44.0684H25.4408" stroke="#00196C" stroke-width="2" stroke-miterlimit="10" stroke-linecap="round"/>
<path d="M8.49854 6.14844H20.4628" stroke="#00196C" stroke-width="2" stroke-miterlimit="10" stroke-linecap="round"/>
<path d="M8.49854 9.90723H20.4628" stroke="#00196C" stroke-width="2" stroke-miterlimit="10" stroke-linecap="round"/>
<path d="M8.49854 13.0098H20.4628" stroke="#00196C" stroke-width="2" stroke-miterlimit="10" stroke-linecap="round"/>
<path d="M8.49854 19.2559H11.3421" stroke="#00196C" stroke-width="2" stroke-miterlimit="10" stroke-linecap="round"/>
<path d="M8.49854 22.3584H11.3421" stroke="#00196C" stroke-width="2" stroke-miterlimit="10" stroke-linecap="round"/>
<path d="M8.49854 25.4463H11.3421" stroke="#00196C" stroke-width="2" stroke-miterlimit="10" stroke-linecap="round"/>
<path d="M13.873 19.2559H16.7166" stroke="#00196C" stroke-width="2" stroke-miterlimit="10" stroke-linecap="round"/>
<path d="M8.49854 3.29785H11.3421" stroke="#00196C" stroke-width="2" stroke-miterlimit="10" stroke-linecap="round"/>
<path d="M13.689 3.29785H16.5325" stroke="#00196C" stroke-width="2" stroke-miterlimit="10" stroke-linecap="round"/>
<path d="M13.873 22.3584H16.7166" stroke="#00196C" stroke-width="2" stroke-miterlimit="10" stroke-linecap="round"/>
<path d="M13.873 25.4463H16.7166" stroke="#00196C" stroke-width="2" stroke-miterlimit="10" stroke-linecap="round"/>
<path d="M8.49854 28.8281H11.3421" stroke="#00196C" stroke-width="2" stroke-miterlimit="10" stroke-linecap="round"/>
<path d="M13.873 28.8281H16.7166" stroke="#00196C" stroke-width="2" stroke-miterlimit="10" stroke-linecap="round"/>
<path d="M8.49854 36.1221H11.3421" stroke="#00196C" stroke-width="2" stroke-miterlimit="10" stroke-linecap="round"/>
<path d="M8.49854 38.6934H11.3421" stroke="#00196C" stroke-width="2" stroke-miterlimit="10" stroke-linecap="round"/>
<path d="M8.49854 41.2646H11.3421" stroke="#00196C" stroke-width="2" stroke-miterlimit="10" stroke-linecap="round"/>
<path d="M19.6572 19.2559H22.5007" stroke="#00196C" stroke-width="2" stroke-miterlimit="10" stroke-linecap="round"/>
<path d="M19.6572 22.3584H22.5007" stroke="#00196C" stroke-width="2" stroke-miterlimit="10" stroke-linecap="round"/>
<path d="M19.6572 25.4463H22.5007" stroke="#00196C" stroke-width="2" stroke-miterlimit="10" stroke-linecap="round"/>
<path opacity="0.5" d="M3.33427 3.95453C3.67503 3.95453 3.95126 3.66675 3.95126 3.31174C3.95126 2.95673 3.67503 2.66895 3.33427 2.66895C2.99352 2.66895 2.71729 2.95673 2.71729 3.31174C2.71729 3.66675 2.99352 3.95453 3.33427 3.95453Z" fill="#00196C"/>
<path opacity="0.5" d="M3.33427 6.13422C3.67503 6.13422 3.95126 5.84643 3.95126 5.49143C3.95126 5.13642 3.67503 4.84863 3.33427 4.84863C2.99352 4.84863 2.71729 5.13642 2.71729 5.49143C2.71729 5.84643 2.99352 6.13422 3.33427 6.13422Z" fill="#00196C"/>
<path opacity="0.5" d="M3.33427 8.31489C3.67503 8.31489 3.95126 8.0271 3.95126 7.67209C3.95126 7.31709 3.67503 7.0293 3.33427 7.0293C2.99352 7.0293 2.71729 7.31709 2.71729 7.67209C2.71729 8.0271 2.99352 8.31489 3.33427 8.31489Z" fill="#00196C"/>
<path opacity="0.5" d="M3.33427 10.5082C3.67503 10.5082 3.95126 10.2205 3.95126 9.86545C3.95126 9.51045 3.67503 9.22266 3.33427 9.22266C2.99352 9.22266 2.71729 9.51045 2.71729 9.86545C2.71729 10.2205 2.99352 10.5082 3.33427 10.5082Z" fill="#00196C"/>
<path opacity="0.5" d="M3.33427 12.6879C3.67503 12.6879 3.95126 12.4001 3.95126 12.0451C3.95126 11.6901 3.67503 11.4023 3.33427 11.4023C2.99352 11.4023 2.71729 11.6901 2.71729 12.0451C2.71729 12.4001 2.99352 12.6879 3.33427 12.6879Z" fill="#00196C"/>
<path opacity="0.5" d="M3.33427 14.8686C3.67503 14.8686 3.95126 14.5808 3.95126 14.2258C3.95126 13.8708 3.67503 13.583 3.33427 13.583C2.99352 13.583 2.71729 13.8708 2.71729 14.2258C2.71729 14.5808 2.99352 14.8686 3.33427 14.8686Z" fill="#00196C"/>
<path opacity="0.5" d="M3.33427 17.0483C3.67503 17.0483 3.95126 16.7605 3.95126 16.4055C3.95126 16.0505 3.67503 15.7627 3.33427 15.7627C2.99352 15.7627 2.71729 16.0505 2.71729 16.4055C2.71729 16.7605 2.99352 17.0483 3.33427 17.0483Z" fill="#00196C"/>
<path opacity="0.5" d="M3.33427 19.228C3.67503 19.228 3.95126 18.9402 3.95126 18.5852C3.95126 18.2302 3.67503 17.9424 3.33427 17.9424C2.99352 17.9424 2.71729 18.2302 2.71729 18.5852C2.71729 18.9402 2.99352 19.228 3.33427 19.228Z" fill="#00196C"/>
<path opacity="0.5" d="M3.33427 21.4223C3.67503 21.4223 3.95126 21.1345 3.95126 20.7795C3.95126 20.4245 3.67503 20.1367 3.33427 20.1367C2.99352 20.1367 2.71729 20.4245 2.71729 20.7795C2.71729 21.1345 2.99352 21.4223 3.33427 21.4223Z" fill="#00196C"/>
<path opacity="0.5" d="M3.33427 23.602C3.67503 23.602 3.95126 23.3142 3.95126 22.9592C3.95126 22.6042 3.67503 22.3164 3.33427 22.3164C2.99352 22.3164 2.71729 22.6042 2.71729 22.9592C2.71729 23.3142 2.99352 23.602 3.33427 23.602Z" fill="#00196C"/>
<path opacity="0.5" d="M3.33427 25.7817C3.67503 25.7817 3.95126 25.4939 3.95126 25.1389C3.95126 24.7839 3.67503 24.4961 3.33427 24.4961C2.99352 24.4961 2.71729 24.7839 2.71729 25.1389C2.71729 25.4939 2.99352 25.7817 3.33427 25.7817Z" fill="#00196C"/>
<path opacity="0.5" d="M3.33427 27.9614C3.67503 27.9614 3.95126 27.6736 3.95126 27.3186C3.95126 26.9636 3.67503 26.6758 3.33427 26.6758C2.99352 26.6758 2.71729 26.9636 2.71729 27.3186C2.71729 27.6736 2.99352 27.9614 3.33427 27.9614Z" fill="#00196C"/>
<path opacity="0.5" d="M3.33427 30.1411C3.67503 30.1411 3.95126 29.8533 3.95126 29.4983C3.95126 29.1433 3.67503 28.8555 3.33427 28.8555C2.99352 28.8555 2.71729 29.1433 2.71729 29.4983C2.71729 29.8533 2.99352 30.1411 3.33427 30.1411Z" fill="#00196C"/>
<path opacity="0.5" d="M3.33427 32.3354C3.67503 32.3354 3.95126 32.0476 3.95126 31.6926C3.95126 31.3376 3.67503 31.0498 3.33427 31.0498C2.99352 31.0498 2.71729 31.3376 2.71729 31.6926C2.71729 32.0476 2.99352 32.3354 3.33427 32.3354Z" fill="#00196C"/>
<path opacity="0.5" d="M3.33427 34.5151C3.67503 34.5151 3.95126 34.2273 3.95126 33.8723C3.95126 33.5173 3.67503 33.2295 3.33427 33.2295C2.99352 33.2295 2.71729 33.5173 2.71729 33.8723C2.71729 34.2273 2.99352 34.5151 3.33427 34.5151Z" fill="#00196C"/>
<path opacity="0.5" d="M3.33427 36.6948C3.67503 36.6948 3.95126 36.407 3.95126 36.052C3.95126 35.697 3.67503 35.4092 3.33427 35.4092C2.99352 35.4092 2.71729 35.697 2.71729 36.052C2.71729 36.407 2.99352 36.6948 3.33427 36.6948Z" fill="#00196C"/>
<path opacity="0.5" d="M3.33427 38.8754C3.67503 38.8754 3.95126 38.5876 3.95126 38.2326C3.95126 37.8776 3.67503 37.5898 3.33427 37.5898C2.99352 37.5898 2.71729 37.8776 2.71729 38.2326C2.71729 38.5876 2.99352 38.8754 3.33427 38.8754Z" fill="#00196C"/>
<path opacity="0.5" d="M3.33427 41.0551C3.67503 41.0551 3.95126 40.7673 3.95126 40.4123C3.95126 40.0573 3.67503 39.7695 3.33427 39.7695C2.99352 39.7695 2.71729 40.0573 2.71729 40.4123C2.71729 40.7673 2.99352 41.0551 3.33427 41.0551Z" fill="#00196C"/>
<path opacity="0.5" d="M3.33427 43.2485C3.67503 43.2485 3.95126 42.9607 3.95126 42.6057C3.95126 42.2507 3.67503 41.9629 3.33427 41.9629C2.99352 41.9629 2.71729 42.2507 2.71729 42.6057C2.71729 42.9607 2.99352 43.2485 3.33427 43.2485Z" fill="#00196C"/>
<path opacity="0.5" d="M3.33427 45.4291C3.67503 45.4291 3.95126 45.1414 3.95126 44.7863C3.95126 44.4313 3.67503 44.1436 3.33427 44.1436C2.99352 44.1436 2.71729 44.4313 2.71729 44.7863C2.71729 45.1414 2.99352 45.4291 3.33427 45.4291Z" fill="#00196C"/>
<path opacity="0.5" d="M27.6517 3.95453C27.9924 3.95453 28.2686 3.66675 28.2686 3.31174C28.2686 2.95673 27.9924 2.66895 27.6517 2.66895C27.3109 2.66895 27.0347 2.95673 27.0347 3.31174C27.0347 3.66675 27.3109 3.95453 27.6517 3.95453Z" fill="#00196C"/>
<path opacity="0.5" d="M27.6517 6.13422C27.9924 6.13422 28.2686 5.84643 28.2686 5.49143C28.2686 5.13642 27.9924 4.84863 27.6517 4.84863C27.3109 4.84863 27.0347 5.13642 27.0347 5.49143C27.0347 5.84643 27.3109 6.13422 27.6517 6.13422Z" fill="#00196C"/>
<path opacity="0.5" d="M27.6517 8.31489C27.9924 8.31489 28.2686 8.0271 28.2686 7.67209C28.2686 7.31709 27.9924 7.0293 27.6517 7.0293C27.3109 7.0293 27.0347 7.31709 27.0347 7.67209C27.0347 8.0271 27.3109 8.31489 27.6517 8.31489Z" fill="#00196C"/>
<path opacity="0.5" d="M27.6517 10.5082C27.9924 10.5082 28.2686 10.2205 28.2686 9.86545C28.2686 9.51045 27.9924 9.22266 27.6517 9.22266C27.3109 9.22266 27.0347 9.51045 27.0347 9.86545C27.0347 10.2205 27.3109 10.5082 27.6517 10.5082Z" fill="#00196C"/>
<path opacity="0.5" d="M27.6517 12.6879C27.9924 12.6879 28.2686 12.4001 28.2686 12.0451C28.2686 11.6901 27.9924 11.4023 27.6517 11.4023C27.3109 11.4023 27.0347 11.6901 27.0347 12.0451C27.0347 12.4001 27.3109 12.6879 27.6517 12.6879Z" fill="#00196C"/>
<path opacity="0.5" d="M27.6517 14.8686C27.9924 14.8686 28.2686 14.5808 28.2686 14.2258C28.2686 13.8708 27.9924 13.583 27.6517 13.583C27.3109 13.583 27.0347 13.8708 27.0347 14.2258C27.0347 14.5808 27.3109 14.8686 27.6517 14.8686Z" fill="#00196C"/>
<path opacity="0.5" d="M27.6517 17.0483C27.9924 17.0483 28.2686 16.7605 28.2686 16.4055C28.2686 16.0505 27.9924 15.7627 27.6517 15.7627C27.3109 15.7627 27.0347 16.0505 27.0347 16.4055C27.0347 16.7605 27.3109 17.0483 27.6517 17.0483Z" fill="#00196C"/>
<path opacity="0.5" d="M27.6517 19.228C27.9924 19.228 28.2686 18.9402 28.2686 18.5852C28.2686 18.2302 27.9924 17.9424 27.6517 17.9424C27.3109 17.9424 27.0347 18.2302 27.0347 18.5852C27.0347 18.9402 27.3109 19.228 27.6517 19.228Z" fill="#00196C"/>
<path opacity="0.5" d="M27.6517 21.4223C27.9924 21.4223 28.2686 21.1345 28.2686 20.7795C28.2686 20.4245 27.9924 20.1367 27.6517 20.1367C27.3109 20.1367 27.0347 20.4245 27.0347 20.7795C27.0347 21.1345 27.3109 21.4223 27.6517 21.4223Z" fill="#00196C"/>
<path opacity="0.5" d="M27.6517 23.602C27.9924 23.602 28.2686 23.3142 28.2686 22.9592C28.2686 22.6042 27.9924 22.3164 27.6517 22.3164C27.3109 22.3164 27.0347 22.6042 27.0347 22.9592C27.0347 23.3142 27.3109 23.602 27.6517 23.602Z" fill="#00196C"/>
<path opacity="0.5" d="M27.6517 25.7817C27.9924 25.7817 28.2686 25.4939 28.2686 25.1389C28.2686 24.7839 27.9924 24.4961 27.6517 24.4961C27.3109 24.4961 27.0347 24.7839 27.0347 25.1389C27.0347 25.4939 27.3109 25.7817 27.6517 25.7817Z" fill="#00196C"/>
<path opacity="0.5" d="M27.6517 27.9614C27.9924 27.9614 28.2686 27.6736 28.2686 27.3186C28.2686 26.9636 27.9924 26.6758 27.6517 26.6758C27.3109 26.6758 27.0347 26.9636 27.0347 27.3186C27.0347 27.6736 27.3109 27.9614 27.6517 27.9614Z" fill="#00196C"/>
<path opacity="0.5" d="M27.6517 30.1411C27.9924 30.1411 28.2686 29.8533 28.2686 29.4983C28.2686 29.1433 27.9924 28.8555 27.6517 28.8555C27.3109 28.8555 27.0347 29.1433 27.0347 29.4983C27.0347 29.8533 27.3109 30.1411 27.6517 30.1411Z" fill="#00196C"/>
<path opacity="0.5" d="M27.6517 32.3354C27.9924 32.3354 28.2686 32.0476 28.2686 31.6926C28.2686 31.3376 27.9924 31.0498 27.6517 31.0498C27.3109 31.0498 27.0347 31.3376 27.0347 31.6926C27.0347 32.0476 27.3109 32.3354 27.6517 32.3354Z" fill="#00196C"/>
<path opacity="0.5" d="M27.6517 34.5151C27.9924 34.5151 28.2686 34.2273 28.2686 33.8723C28.2686 33.5173 27.9924 33.2295 27.6517 33.2295C27.3109 33.2295 27.0347 33.5173 27.0347 33.8723C27.0347 34.2273 27.3109 34.5151 27.6517 34.5151Z" fill="#00196C"/>
<path opacity="0.5" d="M27.6517 36.6948C27.9924 36.6948 28.2686 36.407 28.2686 36.052C28.2686 35.697 27.9924 35.4092 27.6517 35.4092C27.3109 35.4092 27.0347 35.697 27.0347 36.052C27.0347 36.407 27.3109 36.6948 27.6517 36.6948Z" fill="#00196C"/>
<path opacity="0.5" d="M27.6517 38.8754C27.9924 38.8754 28.2686 38.5876 28.2686 38.2326C28.2686 37.8776 27.9924 37.5898 27.6517 37.5898C27.3109 37.5898 27.0347 37.8776 27.0347 38.2326C27.0347 38.5876 27.3109 38.8754 27.6517 38.8754Z" fill="#00196C"/>
<path opacity="0.5" d="M27.6517 41.0551C27.9924 41.0551 28.2686 40.7673 28.2686 40.4123C28.2686 40.0573 27.9924 39.7695 27.6517 39.7695C27.3109 39.7695 27.0347 40.0573 27.0347 40.4123C27.0347 40.7673 27.3109 41.0551 27.6517 41.0551Z" fill="#00196C"/>
<path opacity="0.5" d="M27.6517 43.2485C27.9924 43.2485 28.2686 42.9607 28.2686 42.6057C28.2686 42.2507 27.9924 41.9629 27.6517 41.9629C27.3109 41.9629 27.0347 42.2507 27.0347 42.6057C27.0347 42.9607 27.3109 43.2485 27.6517 43.2485Z" fill="#00196C"/>
<path opacity="0.5" d="M27.6517 45.4291C27.9924 45.4291 28.2686 45.1414 28.2686 44.7863C28.2686 44.4313 27.9924 44.1436 27.6517 44.1436C27.3109 44.1436 27.0347 44.4313 27.0347 44.7863C27.0347 45.1414 27.3109 45.4291 27.6517 45.4291Z" fill="#00196C"/>
<path d="M5.23926 1.10352V46.9516" stroke="#00196C" stroke-width="2" stroke-linejoin="round"/>
<path d="M25.7471 1.10352V46.9516" stroke="#00196C" stroke-width="2" stroke-linejoin="round"/>
<path d="M22.549 35.4297H18.9341V40.7454H22.549V35.4297Z" stroke="#00196C" stroke-width="2" stroke-linejoin="round"/>
</g>
<defs>
<clipPath id="clip0_3490_64897">
<rect width="29.6423" height="48" fill="white" transform="translate(0.678711)"/>
</clipPath>
</defs>
</svg>
