<svg width="57" height="40" viewBox="0 0 57 40" fill="none" xmlns="http://www.w3.org/2000/svg">
<g clip-path="url(#clip0_3490_64780)">
<path d="M51.3615 0.99707H5.63867C2.87725 0.99707 0.638672 3.23565 0.638672 5.99707V34.0019C0.638672 36.7633 2.87725 39.0019 5.63868 39.0019H51.3615C54.1229 39.0019 56.3615 36.7633 56.3615 34.0019V5.99707C56.3615 3.23565 54.1229 0.99707 51.3615 0.99707Z" fill="white" stroke="#00196C" stroke-width="2" stroke-linejoin="round"/>
<path d="M7.33301 23.457H9.34892" stroke="#00196C" stroke-width="2" stroke-miterlimit="10" stroke-linecap="round"/>
<path d="M7.16504 10.7627H32.2742" stroke="#00196C" stroke-width="2" stroke-miterlimit="10" stroke-linecap="round"/>
<path d="M7.16504 14.8105H32.2742" stroke="#00196C" stroke-width="2" stroke-miterlimit="10" stroke-linecap="round"/>
<path d="M12.3726 23.457H14.3885" stroke="#00196C" stroke-width="2" stroke-miterlimit="10" stroke-linecap="round"/>
<path d="M17.4126 23.457H19.4285" stroke="#00196C" stroke-width="2" stroke-miterlimit="10" stroke-linecap="round"/>
<path d="M22.4521 23.457H24.4681" stroke="#00196C" stroke-width="2" stroke-miterlimit="10" stroke-linecap="round"/>
<path d="M27.4922 23.457H29.5081" stroke="#00196C" stroke-width="2" stroke-miterlimit="10" stroke-linecap="round"/>
<path d="M32.5317 23.457H34.5477" stroke="#00196C" stroke-width="2" stroke-miterlimit="10" stroke-linecap="round"/>
<path d="M37.5713 23.457H39.5872" stroke="#00196C" stroke-width="2" stroke-miterlimit="10" stroke-linecap="round"/>
<path d="M42.6113 23.457H44.6272" stroke="#00196C" stroke-width="2" stroke-miterlimit="10" stroke-linecap="round"/>
<path d="M47.6509 23.457H49.6668" stroke="#00196C" stroke-width="2" stroke-miterlimit="10" stroke-linecap="round"/>
<path d="M7.33301 29.5049H9.34892" stroke="#00196C" stroke-width="2" stroke-miterlimit="10" stroke-linecap="round"/>
<path d="M12.3726 29.5049H14.3885" stroke="#00196C" stroke-width="2" stroke-miterlimit="10" stroke-linecap="round"/>
<path d="M17.4126 29.5049H19.4285" stroke="#00196C" stroke-width="2" stroke-miterlimit="10" stroke-linecap="round"/>
<path d="M22.4521 29.5049H24.4681" stroke="#00196C" stroke-width="2" stroke-miterlimit="10" stroke-linecap="round"/>
<path d="M27.4922 29.5049H29.5081" stroke="#00196C" stroke-width="2" stroke-miterlimit="10" stroke-linecap="round"/>
<path d="M32.5317 29.5049H34.5477" stroke="#00196C" stroke-width="2" stroke-miterlimit="10" stroke-linecap="round"/>
<path d="M37.5713 29.5049H39.5872" stroke="#00196C" stroke-width="2" stroke-miterlimit="10" stroke-linecap="round"/>
<path d="M42.6113 29.5049H44.6272" stroke="#00196C" stroke-width="2" stroke-miterlimit="10" stroke-linecap="round"/>
<path d="M47.6509 29.5049H49.6668" stroke="#00196C" stroke-width="2" stroke-miterlimit="10" stroke-linecap="round"/>
<path d="M48.9537 16.7819C48.5195 16.9647 48.0597 17.0561 47.5616 17.0561C46.8464 17.0561 46.2461 16.8211 45.748 16.3641C45.3138 15.9594 44.9945 15.3197 44.8029 14.4841H47.5488V13.1133H44.5858C44.573 12.8652 44.5602 12.6041 44.5602 12.3039C44.5602 12.0427 44.5602 11.8077 44.5858 11.5858H47.5488V10.215H44.8029C45.0073 9.39246 45.3138 8.76579 45.748 8.36107C46.2461 7.90412 46.8464 7.66912 47.5616 7.66912C48.0597 7.66912 48.5195 7.76051 48.9537 7.93023C49.3879 8.09996 49.7966 8.40023 50.1798 8.83107L50.9461 7.18607C50.5374 6.6769 50.0138 6.29829 49.3879 6.03718C48.7621 5.77606 48.098 5.64551 47.3956 5.64551C46.5143 5.64551 45.7225 5.84134 45.02 6.21995C44.3176 6.59857 43.7429 7.15995 43.2959 7.90412C42.8999 8.54385 42.619 9.32718 42.4401 10.215H40.6904V11.5858H42.2613C42.2486 11.8208 42.223 12.0558 42.223 12.3039C42.223 12.5519 42.2358 12.8261 42.2486 13.1002H40.6904V14.4711H42.4274C42.6062 15.3589 42.8872 16.1422 43.2831 16.795C43.7301 17.5391 44.3176 18.1005 45.0073 18.4922C45.7097 18.8708 46.5015 19.0666 47.3828 19.0666C48.0852 19.0666 48.7494 18.9361 49.3752 18.675C50.001 18.4139 50.5246 18.0222 50.9333 17.513L50.167 15.8811C49.7839 16.2989 49.3752 16.5991 48.9409 16.7819H48.9537Z" fill="#00196C"/>
</g>
<defs>
<clipPath id="clip0_3490_64780">
<rect width="57" height="39.3103" fill="white" transform="translate(0 0.344727)"/>
</clipPath>
</defs>
</svg>
