<svg width="59" height="42" viewBox="0 0 59 42" fill="none" xmlns="http://www.w3.org/2000/svg">
<path d="M55.6258 1.5H3.3741C2.19857 1.5 1.24561 2.45393 1.24561 3.63067V38.3693C1.24561 39.5461 2.19857 40.5 3.3741 40.5H55.6258C56.8013 40.5 57.7543 39.5461 57.7543 38.3693V3.63067C57.7543 2.45393 56.8013 1.5 55.6258 1.5Z" fill="white" stroke="#00196C" stroke-width="2" stroke-miterlimit="10"/>
<path d="M57.7543 4.55566H1.24561" stroke="#00196C" stroke-width="2" stroke-miterlimit="10"/>
<path d="M57.7543 30.4609H1.24561" stroke="#00196C" stroke-width="2" stroke-miterlimit="10"/>
<path opacity="0.25" d="M17.9024 10.0586H1.49756V30.743H17.9024V10.0586Z" fill="#00196C"/>
<path d="M29.8328 10.125H21.0909C20.689 10.125 20.3633 10.4511 20.3633 10.8534V10.856C20.3633 11.2582 20.689 11.5843 21.0909 11.5843H29.8328C30.2346 11.5843 30.5604 11.2582 30.5604 10.856V10.8534C30.5604 10.4511 30.2346 10.125 29.8328 10.125Z" fill="#00196C"/>
<path d="M25.0164 7.35156H4.17684C3.77499 7.35156 3.44922 7.67766 3.44922 8.07993V8.08252C3.44922 8.48479 3.77499 8.81089 4.17684 8.81089H25.0164C25.4183 8.81089 25.744 8.48479 25.744 8.08252V8.07993C25.744 7.67766 25.4183 7.35156 25.0164 7.35156Z" fill="#00196C"/>
<path d="M37.5879 7.35156H27.7301C27.3282 7.35156 27.0024 7.67766 27.0024 8.07993V8.08252C27.0024 8.48479 27.3282 8.81089 27.7301 8.81089H37.5879C37.9898 8.81089 38.3156 8.48479 38.3156 8.08252V8.07993C38.3156 7.67766 37.9898 7.35156 37.5879 7.35156Z" fill="#00196C"/>
<path d="M55.6905 7.35156H45.8326C45.4307 7.35156 45.105 7.67766 45.105 8.07993V8.08252C45.105 8.48479 45.4307 8.81089 45.8326 8.81089H55.6905C56.0923 8.81089 56.4181 8.48479 56.4181 8.08252V8.07993C56.4181 7.67766 56.0923 7.35156 55.6905 7.35156Z" fill="#00196C"/>
<path d="M45.6463 13.2549H21.0909C20.689 13.2549 20.3633 13.581 20.3633 13.9832V13.9858C20.3633 14.3881 20.689 14.7142 21.0909 14.7142H45.6463C46.0481 14.7142 46.3739 14.3881 46.3739 13.9858V13.9832C46.3739 13.581 46.0481 13.2549 45.6463 13.2549Z" fill="#00196C"/>
<path d="M24.4804 18.1289H21.0909C20.689 18.1289 20.3633 18.455 20.3633 18.8573V18.8599C20.3633 19.2621 20.689 19.5882 21.0909 19.5882H24.4804C24.8823 19.5882 25.2081 19.2621 25.2081 18.8599V18.8573C25.2081 18.455 24.8823 18.1289 24.4804 18.1289Z" fill="#00196C"/>
<path d="M33.3414 20.7979H21.0909C20.689 20.7979 20.3633 21.124 20.3633 21.5262V21.5288C20.3633 21.9311 20.689 22.2572 21.0909 22.2572H33.3414C33.7433 22.2572 34.069 21.9311 34.069 21.5288V21.5262C34.069 21.124 33.7433 20.7979 33.3414 20.7979Z" fill="#00196C"/>
<path d="M33.3414 23.5928H21.0909C20.689 23.5928 20.3633 23.9189 20.3633 24.3211V24.3237C20.3633 24.726 20.689 25.0521 21.0909 25.0521H33.3414C33.7433 25.0521 34.069 24.726 34.069 24.3237V24.3211C34.069 23.9189 33.7433 23.5928 33.3414 23.5928Z" fill="#00196C"/>
<path d="M25.568 26.1377H21.0909C20.689 26.1377 20.3633 26.4638 20.3633 26.8661V26.8687C20.3633 27.2709 20.689 27.597 21.0909 27.597H25.568C25.9698 27.597 26.2956 27.2709 26.2956 26.8687V26.8661C26.2956 26.4638 25.9698 26.1377 25.568 26.1377Z" fill="#00196C"/>
<path d="M49.4164 18.1289H34.6749C34.273 18.1289 33.9473 18.455 33.9473 18.8573V18.8599C33.9473 19.2621 34.273 19.5882 34.6749 19.5882H49.4164C49.8183 19.5882 50.144 19.2621 50.144 18.8599V18.8573C50.144 18.455 49.8183 18.1289 49.4164 18.1289Z" fill="#00196C"/>
<path d="M17.9024 30.03C17.81 30.03 17.7151 30.018 17.6203 30.018H1.51581C1.51581 29.9465 1.50159 29.8845 1.50159 29.8224C1.50159 29.4575 1.52055 29.0901 1.50159 28.7251C1.48739 28.6213 1.51101 28.5158 1.56809 28.4281C1.62518 28.3404 1.71187 28.2764 1.81215 28.248C3.2346 27.592 4.65705 26.9241 6.0629 26.2538C6.16377 26.1998 6.24632 26.1167 6.29998 26.0152C6.53705 25.5954 6.75753 25.1612 6.67693 24.6293C6.75275 24.5906 6.83215 24.5594 6.914 24.5362C7.17004 24.4933 7.24353 24.3335 7.26013 24.0926C7.28621 23.7133 7.34311 23.3364 7.38104 22.9595C7.39086 22.8774 7.376 22.7943 7.33836 22.7209C6.9497 22.0674 6.66043 21.359 6.48015 20.6193C6.46356 20.5597 6.43037 20.4643 6.39244 20.4571C6.28824 20.4311 6.19473 20.373 6.12501 20.2909C6.05529 20.2087 6.01285 20.1067 6.00363 19.9991C5.87561 19.4242 5.76656 18.8445 5.67884 18.2601C5.63617 17.9237 5.71914 17.8665 6.0795 17.8212C5.80473 17.1339 5.62755 16.4112 5.55319 15.6742C5.49239 14.9353 5.52425 14.1915 5.64802 13.4605C6.44459 13.6538 7.01594 13.2458 7.43793 12.6948C8.40283 11.4377 10.8281 11.1252 12.26 11.9243C12.7218 12.1678 13.0909 12.5577 13.3103 13.0335C13.3369 13.0927 13.3757 13.1456 13.4241 13.1886C14.434 14.0712 14.7185 15.2019 14.5075 16.4853C14.4435 16.8789 14.2941 17.2582 14.1993 17.6494C14.1899 17.7404 14.2004 17.8325 14.2301 17.919C14.2711 18.0346 14.2981 18.1547 14.3107 18.2768C14.2861 18.9136 14.1555 19.5417 13.9243 20.1351C13.8721 20.2615 13.7228 20.345 13.6232 20.4523C13.5703 20.4936 13.5286 20.5478 13.5023 20.6098C13.3299 21.3445 13.0452 22.0479 12.6583 22.6947C12.6157 22.7707 12.5982 22.8584 12.6085 22.9451C12.6465 23.3745 12.701 23.8015 12.7366 24.2333C12.7313 24.2958 12.7507 24.358 12.7907 24.4062C12.8306 24.4544 12.8878 24.4849 12.9499 24.4909C13.0139 24.5052 13.0732 24.5386 13.1348 24.5553C13.2558 24.5911 13.3008 24.6436 13.2889 24.7939C13.2747 25.0449 13.2747 25.2966 13.2889 25.5477C13.2889 25.562 13.2889 25.5835 13.2889 25.5882C13.6114 25.7958 13.7062 26.2037 14.1163 26.3754C15.3491 26.8931 16.5487 27.4942 17.7625 28.0596C17.8017 28.0751 17.8422 28.0871 17.8834 28.0954L17.9024 30.03Z" fill="#00196C"/>
</svg>
