<svg width="57" height="40" viewBox="0 0 57 40" fill="none" xmlns="http://www.w3.org/2000/svg">
<g clip-path="url(#clip0_3490_64763)">
<path d="M17.0728 1.13379C14.3113 1.13379 12.0728 3.37237 12.0728 6.13379V36.3621C12.0728 37.7449 13.1937 38.8659 14.5765 38.8659H15.8505C16.5297 38.8659 17.0803 38.3153 17.0803 37.6361C17.0803 36.1653 18.275 34.9735 19.7493 34.9735C21.2236 34.9735 22.4183 36.1653 22.4183 37.6361C22.4183 38.3153 22.9689 38.8659 23.6481 38.8659H24.4802C25.1594 38.8659 25.71 38.3153 25.71 37.6361C25.71 36.1653 26.9047 34.9735 28.379 34.9735C29.8533 34.9735 31.048 36.1653 31.048 37.6361C31.048 38.3153 31.5987 38.8659 32.2779 38.8659H33.11C33.7892 38.8659 34.3398 38.3153 34.3398 37.6361C34.3398 36.1653 35.5345 34.9735 37.0088 34.9735C38.4831 34.9735 39.6778 36.1653 39.6778 37.6361C39.6778 38.3153 40.2284 38.8659 40.9076 38.8659H42.315C43.7715 38.8659 44.9522 37.6852 44.9522 36.2287V6.1338C44.9522 3.37237 42.7136 1.13379 39.9522 1.13379H17.0728Z" fill="white" stroke="#00196C" stroke-width="2" stroke-linejoin="round"/>
<g opacity="0.5" clip-path="url(#clip1_3490_64763)">
<path d="M16.9272 25.8007C16.7274 25.9289 16.5984 26.0276 16.4562 26.0999C16.2164 26.2218 15.9657 26.2563 15.7593 26.0376C15.5528 25.819 15.5879 25.5563 15.7133 25.3131C15.7926 25.1597 15.8997 25.0146 16.0184 24.8908C17.5932 23.2519 19.171 21.6167 20.7495 19.9822C21.0425 19.6787 21.1079 19.6825 21.4118 19.9973C21.9731 20.5792 22.5337 21.1611 23.0962 21.7424C23.1713 21.8203 23.2542 21.8907 23.3329 21.9642C23.3681 21.9567 23.4026 21.9492 23.4377 21.941C23.4377 21.7236 23.4359 21.5055 23.4377 21.2881C23.4413 20.9311 23.5188 20.8513 23.8657 20.8438C23.9463 20.8419 24.0262 20.8419 24.1067 20.8438C24.4585 20.8494 24.5366 20.9255 24.539 21.2818C24.542 21.782 24.5475 22.2829 24.5372 22.7831C24.5305 23.0954 24.6268 23.3442 24.846 23.5629C25.2874 24.0035 25.7299 24.4452 26.141 24.9153C26.3082 25.1063 26.4516 25.3615 26.4983 25.6097C26.5273 25.7649 26.3984 26.0464 26.2646 26.1168C26.0999 26.2036 25.8486 26.1646 25.6512 26.1124C25.5126 26.076 25.4018 25.9258 25.222 25.78C25.208 25.9704 25.1917 26.0879 25.1917 26.2061C25.1899 27.1965 25.1566 28.1887 25.2026 29.1772C25.2316 29.8063 24.5935 30.4862 23.988 30.4548C23.4673 30.4272 22.9436 30.4529 22.4217 30.4485C22.096 30.446 22.0118 30.358 22.0106 30.0187C22.0076 29.1741 22.0106 28.3295 22.0094 27.4849C22.0094 27.0243 21.9549 26.9709 21.5002 26.9696C21.1987 26.9696 20.8978 26.9683 20.5963 26.9696C20.2082 26.9715 20.1349 27.045 20.1337 27.4397C20.1319 28.2949 20.1343 29.1496 20.1319 30.0049C20.1307 30.3693 20.0568 30.4454 19.7069 30.4479C19.2049 30.4517 18.7012 30.424 18.2005 30.4548C17.5617 30.4944 16.9181 29.8584 16.9436 29.1603C16.9793 28.1711 16.9532 27.1795 16.9514 26.1891C16.9514 26.0798 16.9381 25.971 16.9272 25.8001V25.8007Z" fill="#00196C"/>
</g>
<path d="M16.4067 7.42285H40.415" stroke="#00196C" stroke-width="2" stroke-miterlimit="10" stroke-linecap="round"/>
<path d="M16.4067 12.5068H40.415" stroke="#00196C" stroke-width="2" stroke-miterlimit="10" stroke-linecap="round"/>
<path d="M29.0908 20H40.415" stroke="#00196C" stroke-width="2" stroke-miterlimit="10" stroke-linecap="round"/>
<path d="M29.0908 25.0967H40.415" stroke="#00196C" stroke-width="2" stroke-miterlimit="10" stroke-linecap="round"/>
<path d="M29.0908 30.0801H40.415" stroke="#00196C" stroke-width="2" stroke-miterlimit="10" stroke-linecap="round"/>
</g>
<defs>
<clipPath id="clip0_3490_64763">
<rect width="34.125" height="39" fill="white" transform="translate(11.4375 0.5)"/>
</clipPath>
<clipPath id="clip1_3490_64763">
<rect width="10.891" height="10.6988" fill="white" transform="translate(15.6123 19.7578)"/>
</clipPath>
</defs>
</svg>
