<svg width="41" height="48" viewBox="0 0 41 48" fill="none" xmlns="http://www.w3.org/2000/svg">
<g clip-path="url(#clip0_3490_65018)">
<path d="M1.74561 42.0409C1.74561 44.8024 3.98418 47.0409 6.74561 47.0409H34.2553C37.0167 47.0409 39.2553 44.8024 39.2553 42.0409V5.96094C39.2553 3.19952 37.0167 0.960938 34.2553 0.960938H13.647C12.345 0.960938 11.0944 1.4688 10.161 2.37655L3.25961 9.08849C2.29168 10.0299 1.74561 11.3227 1.74561 12.6729V42.0409Z" fill="white" stroke="#00196C" stroke-width="2" stroke-linejoin="round"/>
<path d="M9.64209 16.3203H31.3582" stroke="#00196C" stroke-width="2" stroke-linecap="round" stroke-linejoin="round"/>
<path d="M9.64209 22.0801H31.3582" stroke="#00196C" stroke-width="2" stroke-linecap="round" stroke-linejoin="round"/>
<path d="M11.6166 0.960938V10.5609H1.74561" stroke="#00196C" stroke-width="2" stroke-linejoin="round"/>
<path opacity="0.5" d="M12.9692 38.0449V39.6673C12.9692 40.0225 13.2654 40.3201 13.6405 40.3201H14.6374C15.0027 40.3201 15.3087 40.0321 15.3087 39.6673V38.6977" fill="#00196C"/>
<path opacity="0.5" d="M28.3087 38.0449V39.6673C28.3087 40.0225 28.0125 40.3201 27.6374 40.3201H26.6405C26.2752 40.3201 25.9692 40.0321 25.9692 39.6673V38.6977" fill="#00196C"/>
<g opacity="0.5">
<path d="M28.1508 34.1571L27.9731 33.6963L27.6572 33.7923C27.2525 33.9171 26.8281 33.9843 26.3938 33.9843H14.8842C14.4598 33.9843 14.0353 33.9171 13.6207 33.7923L13.3049 33.6963L13.1272 34.1571C13.0186 34.4451 12.9692 34.7427 12.9692 35.0403V38.0451C12.9692 38.4003 13.2654 38.6979 13.6405 38.6979H27.6572C28.0225 38.6979 28.3285 38.4099 28.3285 38.0451V35.0403C28.3285 34.7427 28.2791 34.4355 28.1705 34.1571H28.1508ZM16.3056 36.4227H14.973C14.4203 36.4227 13.9761 35.9907 13.9761 35.4531C13.9761 35.2707 14.1241 35.1267 14.3117 35.1267H15.6443C16.197 35.1267 16.6412 35.5587 16.6412 36.0963C16.6412 36.2787 16.4932 36.4227 16.3056 36.4227ZM23.314 37.8723H17.9738C17.6974 37.8723 17.4803 37.6611 17.4803 37.3923C17.4803 37.1235 17.6974 36.9123 17.9738 36.9123H23.314C23.5904 36.9123 23.8076 37.1235 23.8076 37.3923C23.8076 37.6611 23.5904 37.8723 23.314 37.8723ZM26.3148 36.4227H24.9822C24.7947 36.4227 24.6466 36.2787 24.6466 36.0963C24.6466 35.5587 25.0908 35.1267 25.6436 35.1267H26.9761C27.1637 35.1267 27.3118 35.2707 27.3118 35.4531C27.3118 35.9907 26.8676 36.4227 26.3148 36.4227Z" fill="#00196C"/>
<path d="M13.9167 32.8801C14.2227 32.9761 14.5484 33.0241 14.8841 33.0241H26.3936C26.7193 33.0241 27.0451 32.9761 27.361 32.8801L27.6176 32.8033L26.4726 29.8945C26.1764 29.1457 25.4361 28.6465 24.607 28.6465H16.6806C15.8514 28.6465 15.1111 29.1457 14.815 29.8945L13.6699 32.8033L13.9266 32.8801H13.9167Z" fill="#00196C"/>
</g>
<path opacity="0.5" d="M13.9661 32.8605H12.8013C12.3374 32.8605 11.9722 32.4957 11.9722 32.0541C11.9722 31.7853 12.1992 31.5645 12.4756 31.5645H13.4726C13.7489 31.5645 13.976 31.7853 13.976 32.0541V32.8605H13.9661Z" fill="#00196C"/>
<path opacity="0.5" d="M27.3121 32.8605H28.4769C28.9408 32.8605 29.3061 32.4957 29.3061 32.0541C29.3061 31.7853 29.079 31.5645 28.8026 31.5645H27.8057C27.5293 31.5645 27.3022 31.7853 27.3022 32.0541V32.8605H27.3121Z" fill="#00196C"/>
</g>
<defs>
<clipPath id="clip0_3490_65018">
<rect width="39.4839" height="48" fill="white" transform="translate(0.758301)"/>
</clipPath>
</defs>
</svg>
