<svg width="60" height="42" viewBox="0 0 60 42" fill="none" xmlns="http://www.w3.org/2000/svg">
<g clip-path="url(#clip0_3473_56203)">
<path d="M50.1799 18.7467C49.7326 16.6425 49.4476 14.5082 49.3273 12.3619C47.4016 12.0477 45.0937 11.2207 43.5318 9.91699C43.2591 12.8668 42.831 15.8007 42.2492 18.707C40.974 23.9687 38.2067 25.1098 36.0899 25.1387H36.0274C32.5545 25.1387 31.915 21.1049 31.5292 18.6925C31.4651 18.2178 31.3768 17.7465 31.2646 17.2805C30.9853 16.3307 30.4377 15.7818 29.6439 15.6482C25.948 15.4061 22.2408 15.3784 18.5416 15.5651C13.5142 15.9262 9.03068 16.7352 8.36183 17.0457L8.3067 17.071C6.76687 17.7933 4.44426 18.725 4.35606 23.9687C4.28255 28.602 6.61619 31.4622 10.8645 32.3867C11.0078 32.4192 11.1107 32.4408 11.1695 32.4589C12.6396 32.8995 29.1955 32.7695 35.4247 32.7189H36.6264C37.6342 30.9723 38.8792 29.3686 40.3272 27.952C42.1647 26.1896 46.0198 23.5281 51.525 22.7553C50.8751 21.4927 50.4217 20.1415 50.1799 18.7467ZM6.91755 23.2717C6.91706 23.153 6.94049 23.0354 6.98649 22.9256C7.03249 22.8159 7.10015 22.7161 7.18556 22.6322C7.27097 22.5483 7.37244 22.4818 7.48413 22.4366C7.59582 22.3914 7.71551 22.3684 7.8363 22.3689H20.2027C20.3235 22.3684 20.4432 22.3914 20.5549 22.4366C20.6666 22.4818 20.7681 22.5483 20.8535 22.6322C20.9389 22.7161 21.0066 22.8159 21.0526 22.9256C21.0986 23.0354 21.122 23.153 21.1215 23.2717C21.1215 23.5111 21.0247 23.7408 20.8524 23.9101C20.6801 24.0794 20.4464 24.1745 20.2027 24.1745H7.8363C7.59263 24.1745 7.35894 24.0794 7.18664 23.9101C7.01434 23.7408 6.91755 23.5111 6.91755 23.2717ZM23.4147 28.4106H11.0483C10.9275 28.4111 10.8078 28.388 10.6961 28.3428C10.5844 28.2976 10.4829 28.2312 10.3975 28.1472C10.3121 28.0633 10.2445 27.9636 10.1985 27.8538C10.1525 27.7441 10.129 27.6265 10.1295 27.5078C10.1295 27.2683 10.2263 27.0387 10.3986 26.8694C10.5709 26.7001 10.8046 26.6049 11.0483 26.6049H23.4147C23.6584 26.6049 23.8921 26.7001 24.0644 26.8694C24.2367 27.0387 24.3335 27.2683 24.3335 27.5078C24.334 27.6265 24.3105 27.7441 24.2645 27.8538C24.2185 27.9636 24.1509 28.0633 24.0655 28.1472C23.98 28.2312 23.8786 28.2976 23.7669 28.3428C23.6552 28.388 23.5355 28.4111 23.4147 28.4106Z" fill="#F63463"/>
<path d="M48.8201 30.5479C48.2158 30.5479 47.6363 30.7838 47.209 31.2037C46.7817 31.6236 46.5416 32.1931 46.5416 32.7869C46.5426 33.3801 46.7831 33.9487 47.2103 34.3678C47.6375 34.7869 48.2165 35.0223 48.8201 35.0223C49.1192 35.0228 49.4154 34.9653 49.6918 34.8532C49.9682 34.741 50.2194 34.5765 50.4311 34.3688C50.6427 34.1612 50.8106 33.9146 50.9251 33.6432C51.0397 33.3717 51.0987 33.0807 51.0987 32.7869C51.0991 32.4927 51.0405 32.2013 50.9262 31.9295C50.8119 31.6576 50.644 31.4106 50.4324 31.2026C50.2207 30.9946 49.9693 30.8297 49.6927 30.7173C49.416 30.605 49.1195 30.5474 48.8201 30.5479Z" fill="#00196C"/>
<path d="M57.0889 22.56C55.8921 22.4647 54.6902 22.4478 53.4911 22.5094C53.0627 21.9443 52.7437 21.3065 52.5503 20.6279C51.7675 17.9991 51.3025 15.2888 51.1648 12.553C51.2824 12.553 51.4 12.553 51.5066 12.553C52.3702 12.47 53.5131 11.8957 54.0791 9.64588C54.4445 7.92654 54.4943 6.15687 54.2261 4.42031C54.0203 2.97578 53.5536 1.10872 52.4988 0.447849C51.1722 -0.397201 48.6731 0.169766 46.7805 0.978703C45.9433 1.31639 45.1461 1.74264 44.4028 2.2499C41.2353 1.22273 37.8598 0.97473 34.5721 1.52763C33.9377 1.67587 33.3818 2.04996 33.0119 2.57759C32.6419 3.10522 32.4842 3.7489 32.5692 4.38418C32.7052 5.39896 33.5651 6.38125 35.1674 6.28374C38.328 6.09234 41.7237 7.55855 41.7825 7.58383H41.8155C41.8376 9.72896 40.9335 16.2979 40.4484 18.2914C39.6473 21.5849 38.1699 23.2678 36.0568 23.2967H36.0311C34.2671 23.2967 33.7489 20.9855 33.3373 18.4106C33.2661 17.863 33.1606 17.3203 33.0212 16.7855C32.5912 15.341 31.6137 14.3225 30.3127 13.9759C30.1657 12.6938 29.0596 10.2851 25.8549 9.9673C22.2718 9.60617 13.7274 10.4259 10.7873 10.8196C7.74075 11.2276 7.08292 14.0228 7.15642 15.6262C5.69085 16.2503 4.50165 17.3702 3.8048 18.7826H3.69455H3.6431C2.71996 18.7855 1.83176 19.1297 1.15511 19.7468C0.819729 20.0873 0.558968 20.4919 0.388936 20.9354C0.218903 21.3788 0.143208 21.8519 0.166526 22.3253C0.166526 24.1995 0.511976 25.3985 1.25066 26.0955C1.68705 26.503 2.26944 26.7249 2.87134 26.713H2.98159C3.62105 30.0174 5.58718 32.3756 8.71095 33.5745C8.92082 35.8663 9.99454 37.9983 11.7215 39.5523C13.4484 41.1064 15.7039 41.9702 18.0455 41.9745C20.2242 41.9718 22.3342 41.225 24.0143 39.862C25.6943 38.4989 26.84 36.6044 27.2551 34.5026C29.7615 34.5026 32.492 34.4737 35.421 34.4521H35.7481C35.7454 34.4737 35.7454 34.4955 35.7481 34.5171C35.5533 36.1566 36.869 37.3231 38.1699 37.7131C38.3954 37.7793 38.6293 37.8133 38.8645 37.8142C39.4293 37.8142 39.9755 37.6156 40.4043 37.2545C41.2468 38.7164 42.474 39.9287 43.9573 40.7642C45.4406 41.5998 47.1253 42.0278 48.8348 42.0034C51.322 42.0005 53.7063 41.0281 55.4646 39.2996C57.2229 37.5711 58.2116 35.2277 58.2135 32.7836C58.1958 31.0494 57.6702 29.3568 56.6994 27.9084C56.7876 27.9084 56.8758 27.9084 56.9677 27.9084C57.28 27.9309 57.5938 27.8924 57.8909 27.7951C58.188 27.6978 58.4625 27.5436 58.6986 27.3414C58.9367 27.1368 59.1311 26.8879 59.2705 26.6089C59.41 26.3299 59.4916 26.0265 59.5108 25.7163C59.5769 24.4957 58.8824 22.7008 57.0889 22.56ZM52.2673 9.2306C52.2015 9.49508 52.113 9.7536 52.0027 10.0034L51.9807 9.94563C51.3336 8.76832 50.9735 7.45945 50.9289 6.12211C50.8842 4.78477 51.1562 3.4555 51.7234 2.23905C52.3298 3.33328 52.8884 6.78212 52.2673 9.2306ZM47.4898 2.61103C48.2529 2.27508 49.0552 2.03251 49.8785 1.88876C49.2874 3.30323 49.0205 4.82826 49.0967 6.35553C49.1729 7.8828 49.5904 9.37483 50.3196 10.7257C48.4269 10.5595 45.6119 9.64227 44.2668 8.19774C43.991 7.91683 43.7759 7.58392 43.6347 7.21908C43.6329 7.19143 43.6329 7.16369 43.6347 7.13603H43.6126C43.5129 6.81934 43.4915 6.48382 43.5502 6.15735C43.7743 4.93673 45.3215 3.53914 47.4898 2.61103ZM35.0462 4.48531C34.4398 4.52503 34.403 4.27225 34.3847 4.15307C34.3613 3.97209 34.4023 3.78872 34.5007 3.63405C34.5992 3.47939 34.749 3.36292 34.9249 3.3044C37.5597 2.86576 40.2603 2.99889 42.8372 3.69443C42.3431 4.26225 41.9863 4.93267 41.7935 5.65537C40.5072 5.17146 37.7657 4.31557 35.0535 4.48169L35.0462 4.48531ZM11.0189 12.6288C14.4513 12.1666 22.507 11.4732 25.6638 11.7838C27.5491 11.968 28.1812 13.1416 28.387 13.7989C25.0622 13.6284 21.7305 13.6284 18.4057 13.7989C15.2436 14.011 12.0987 14.4224 8.99026 15.0304C9.07478 14.1673 9.44596 12.8347 11.0262 12.6252L11.0189 12.6288ZM2.50752 24.799C2.35317 24.6509 1.98934 24.1165 1.98934 22.3325C1.98934 21.1696 2.63246 20.7832 3.12859 20.6568C2.8766 21.7423 2.74598 22.8515 2.73904 23.9648C2.73904 24.2862 2.73904 24.6004 2.73904 24.911C2.65348 24.8975 2.57475 24.8569 2.51486 24.7954L2.50752 24.799ZM18.0455 40.1688C16.2864 40.1664 14.5833 39.5602 13.2306 38.4551C11.8779 37.35 10.9604 35.8154 10.6367 34.1162C11.21 34.286 13.0659 34.3943 15.9654 34.4521C16.161 34.8088 16.4511 35.1069 16.805 35.3148C17.1589 35.5226 17.5634 35.6326 17.9757 35.633C18.3779 35.633 18.7729 35.5279 19.1203 35.3287C19.4677 35.1295 19.755 34.8432 19.9528 34.499C21.0774 34.499 22.2865 34.499 23.5801 34.499H25.3661C24.9685 36.1133 24.0308 37.5496 22.7034 38.5777C21.3759 39.6058 19.7357 40.1661 18.0455 40.1688ZM35.4063 32.6464C29.1845 32.697 12.6506 32.827 11.1769 32.39C11.1181 32.372 11.0115 32.3467 10.8719 32.3178C6.62354 31.3969 4.5104 28.5945 4.5839 23.9865C4.66843 18.7753 6.78892 17.8003 8.31773 17.0888L8.37285 17.0636C9.03803 16.7566 13.5179 15.944 18.5416 15.5937C22.2396 15.4089 25.9455 15.4367 29.6402 15.6768C30.434 15.8068 30.9779 16.3521 31.2572 17.2983C31.3491 17.6197 31.4336 18.147 31.5255 18.7031C31.893 21.1046 32.5471 25.1132 36.02 25.1132H36.0972C38.203 25.0843 40.9776 23.954 42.2492 18.7211C42.8327 15.8334 43.2608 12.9174 43.5318 9.98535C45.0937 11.2818 47.3979 12.1016 49.3236 12.4122C49.4478 15.3746 49.9415 18.3109 50.7936 21.1552C50.9505 21.6951 51.1687 22.2161 51.4441 22.7081C45.7662 23.4989 42.161 26.128 40.3161 27.9012C38.8694 29.3081 37.6244 30.9021 36.6154 32.6392L35.4063 32.6464ZM48.8201 40.1941C45.4906 40.1941 42.5065 38.1754 41.4995 35.2682C42.4954 33.1917 45.7809 28.2117 54.3915 27.8831C54.4114 27.9158 54.4335 27.9471 54.4576 27.977C55.6561 29.3029 56.3314 31.0069 56.3613 32.78C56.3603 34.7458 55.5657 36.6309 54.1519 38.0215C52.7381 39.4122 50.8206 40.1948 48.8201 40.1977V40.1941ZM57.4748 25.9871C57.421 26.0337 57.3579 26.069 57.2897 26.0907C57.2214 26.1124 57.1493 26.1202 57.0779 26.1135C42.8225 25.2143 39.5113 35.196 39.379 35.6186C39.3357 35.7554 39.2394 35.87 39.1108 35.9376C38.9822 36.0052 38.8316 36.0203 38.6918 35.9797C38.3831 35.8894 37.5415 35.4813 37.5525 34.8024C38.5439 32.706 39.9135 30.8034 41.595 29.1868C43.7633 27.103 48.6401 23.7012 56.9383 24.3548C57.5373 24.4018 57.6733 25.3046 57.6549 25.6079C57.6522 25.6803 57.635 25.7514 57.604 25.8171C57.5731 25.8829 57.5292 25.9419 57.4748 25.9907V25.9871Z" fill="#00196C"/>
<path d="M52.2673 9.2308C52.2015 9.49529 52.113 9.7538 52.0027 10.0036L51.9807 9.94584C51.3336 8.76853 50.9735 7.45965 50.9289 6.12231C50.8842 4.78498 51.1562 3.45571 51.7234 2.23926C52.3298 3.33349 52.8884 6.78232 52.2673 9.2308Z" fill="#FFDEAF"/>
<path d="M2.51854 24.8024C2.36052 24.6579 1.99669 24.1234 1.99669 22.3358C1.99669 21.1766 2.63982 20.7866 3.13595 20.6602C2.88513 21.7469 2.75574 22.8574 2.75007 23.9718C2.75007 24.2932 2.75007 24.6073 2.75007 24.9143C2.66166 24.9057 2.57941 24.8659 2.51854 24.8024Z" fill="#FFDEAF"/>
</g>
<defs>
<clipPath id="clip0_3473_56203">
<rect width="59.3442" height="41.9997" fill="white" transform="translate(0.15918)"/>
</clipPath>
</defs>
</svg>
