<svg width="84" height="54" viewBox="0 0 84 54" fill="none" xmlns="http://www.w3.org/2000/svg">
    <path d="M22.7442 37.9349L22.7098 39.193C22.5875 42.0708 24.879 44.4706 27.7505 44.4706H55.8102C56.8479 44.4706 57.8008 43.8982 58.2899 42.9798L58.5532 42.4828C59.2993 41.0801 58.7287 39.3345 57.2993 38.6457L38.9293 29.7952L39.3149 15.0883" stroke="#00196C" stroke-width="2" stroke-miterlimit="10"/>
    <path d="M9.28085 52.5749C13.6784 52.5749 17.2433 49.0428 17.2433 44.6858C17.2433 40.3287 13.6784 36.7966 9.28085 36.7966C4.88329 36.7966 1.31836 40.3287 1.31836 44.6858C1.31836 49.0428 4.88329 52.5749 9.28085 52.5749Z" stroke="#00196C" stroke-width="2" stroke-miterlimit="10"/>
    <path d="M74.7184 52.5749C79.1159 52.5749 82.6809 49.0428 82.6809 44.6858C82.6809 40.3287 79.1159 36.7966 74.7184 36.7966C70.3208 36.7966 66.7559 40.3287 66.7559 44.6858C66.7559 49.0428 70.3208 52.5749 74.7184 52.5749Z" stroke="#00196C" stroke-width="2" stroke-miterlimit="10"/>
    <path d="M9.31039 47.7738C10.9316 47.7738 12.2458 46.4717 12.2458 44.8655C12.2458 43.2593 10.9316 41.9572 9.31039 41.9572C7.68922 41.9572 6.375 43.2593 6.375 44.8655C6.375 46.4717 7.68922 47.7738 9.31039 47.7738Z" fill="#00196C"/>
    <path d="M74.8553 47.7738C76.4765 47.7738 77.7907 46.4717 77.7907 44.8655C77.7907 43.2593 76.4765 41.9572 74.8553 41.9572C73.2341 41.9572 71.9199 43.2593 71.9199 44.8655C71.9199 46.4717 73.2341 47.7738 74.8553 47.7738Z" fill="#00196C"/>
    <path d="M27.6405 44.5879L17.8983 32.9829L17.8633 24.3904L34.2435 44.6763L27.6405 44.5879Z" fill="#F63463" stroke="#00196C" stroke-width="2" stroke-linecap="round" stroke-linejoin="round"/>
    <path d="M40.086 8.73535H21.3848V14.5584H40.086V8.73535Z" fill="#F63463" stroke="#00196C" stroke-width="2" stroke-linecap="round" stroke-linejoin="round"/>
    <path d="M17.8984 24.2863L21.3846 20.9332V14.7885" stroke="#00196C" stroke-width="2" stroke-linecap="round" stroke-linejoin="round"/>
    <path d="M23.5085 14.285L23.3237 31.3315" stroke="#00196C" stroke-width="2" stroke-miterlimit="10"/>
    <path d="M9.28125 33.0144C15.7888 33.0144 21.061 38.2412 21.061 44.6856H62.8188C62.8188 38.5566 67.5848 33.5317 73.6434 33.0522C74.1783 33.0112 74.5953 32.5791 74.589 32.046L74.5762 30.8568C74.5699 30.2984 74.1051 29.8473 73.5415 29.8694C69.1066 30.0492 65.1492 32.3898 62.7105 35.6451C62.3667 36.1057 62.4685 36.7555 62.9461 37.0772L64.5825 38.1718" stroke="#00196C" stroke-width="2" stroke-linecap="round" stroke-linejoin="round"/>
    <path d="M39.4196 9.48686L39.5882 2.69511C39.5882 2.69511 38.6826 1.58826 36.3438 1.58826C34.4452 1.58826 32.0502 3.20269 31.2133 3.81179C31.0072 3.96242 30.7668 4.04102 30.517 4.04102H24.5246C24.0406 4.04102 23.644 4.44053 23.6253 4.94484L23.5098 9.52943" stroke="#00196C" stroke-width="2" stroke-miterlimit="10"/>
</svg>
