<svg width="84" height="57" viewBox="0 0 84 57" fill="none" xmlns="http://www.w3.org/2000/svg">
<g id="Visuel MRH">
<path id="Vector" d="M42.0533 9.79492L21.7236 30.0007V49.5H27.8449V33.9409C27.8449 33.2948 28.0737 32.8307 28.7236 32.8307H39.5474C40.1973 32.8307 40.7236 33.3539 40.7236 34V49.1183H62.2236V29.5L42.0533 9.79492ZM36.314 26.393C35.7968 26.393 35.3803 25.9971 35.3803 25.5058C35.3803 22.1935 38.227 19.5 41.7236 19.5C45.2202 19.5 48.0669 22.1935 48.0669 25.5058C48.0669 25.9971 47.6504 26.393 47.1333 26.393H36.314ZM58.3851 44.5795C58.3851 45.1346 57.9366 45.5805 57.3783 45.5805H45.7306C45.1722 45.5805 44.7237 45.1346 44.7237 44.5795V33.0003C44.7237 32.4452 45.1722 31.9993 45.7306 31.9993H57.3783C57.9366 31.9993 58.3851 32.4452 58.3851 33.0003V44.5795Z" fill="#F63463"/>
<path id="Vector_2" d="M41.1459 20V25.9512H35.2236C35.8552 22.9756 38.1893 20.637 41.1459 20Z" fill="#FFDEAF"/>
<path id="Vector_3" d="M48.7711 26.0936H42.9541V20.0469C45.8557 20.6929 48.1486 23.0725 48.7711 26.0936Z" fill="#FFDEAF"/>
<g id="Group">
<path id="Vector_4" d="M40.9822 49.5088H64.4397V55.9993H19.2461V49.5088H27.4741" stroke="#00196C" stroke-width="2" stroke-linecap="round" stroke-linejoin="round"/>
<path id="Vector_5" d="M21.3687 29.71V49.5096" stroke="#00196C" stroke-width="2" stroke-linecap="round" stroke-linejoin="round"/>
<path id="Vector_6" d="M62.3213 29.4307V49.452" stroke="#00196C" stroke-width="2" stroke-linecap="round" stroke-linejoin="round"/>
<path id="Vector_7" d="M51.4399 32.7607V44.8507" stroke="#00196C" stroke-width="2" stroke-linecap="round" stroke-linejoin="round"/>
<path id="Vector_8" d="M40.2286 44.1846H36.3755" stroke="#00196C" stroke-width="2" stroke-linecap="round" stroke-linejoin="round"/>
<path id="Vector_9" d="M60.3546 20.7632L68.6539 29.0138L65.3895 32.2591L41.9007 9.12991L18.354 32.5384L14.8398 29.0448L41.758 2.28027L53.6919 14.1441" stroke="#00196C" stroke-width="2" stroke-linecap="round" stroke-linejoin="round"/>
<path id="Vector_10" d="M53.7856 14.1214V9.07617H60.31V20.6696" stroke="#00196C" stroke-width="2" stroke-linecap="round" stroke-linejoin="round"/>
<path id="Vector_11" d="M27.8394 56.0007V32.7607H40.6161V55.9431" stroke="#00196C" stroke-width="2" stroke-linecap="round" stroke-linejoin="round"/>
<path id="Vector_12" d="M45.1339 32.5385H58.0221V45.1826H45.1339C45.1339 45.1826 45.0491 32.4543 45.1339 32.5385Z" stroke="#00196C" stroke-width="2" stroke-linecap="round" stroke-linejoin="round"/>
<path id="Vector_13" d="M35.4297 25.9909H48.3759C48.3759 25.9909 47.872 19.5004 41.7935 19.558C35.7151 19.6156 35.4341 25.9909 35.4341 25.9909H35.4297Z" stroke="#00196C" stroke-width="2" stroke-linecap="round" stroke-linejoin="round"/>
<path id="Vector_14" d="M41.9541 25.6048V19.5576" stroke="#00196C" stroke-width="2" stroke-linecap="round" stroke-linejoin="round"/>
</g>
<g id="line">
<path id="Vector 48" d="M1.22363 56L8.65892 56" stroke="#00196C" stroke-width="2" stroke-linecap="round"/>
<path id="Vector 49" d="M17.0234 56L80.2234 56" stroke="#00196C" stroke-width="2" stroke-linecap="round"/>
<path id="Vector 50" d="M12.374 56L14.2328 56" stroke="#00196C" stroke-width="2" stroke-linecap="round"/>
</g>
</g>
</svg>
