<svg width="110" height="61" viewBox="0 0 110 61" fill="none" xmlns="http://www.w3.org/2000/svg">
    <path d="M11.8 59.7769L19.8993 59.7769" stroke="#00196C" stroke-width="2" stroke-linecap="round" />
    <path d="M29.011 59.7769L96.8421 59.7768" stroke="#00196C" stroke-width="2"
        stroke-linecap="round" />
    <path d="M23.949 59.7769L24.9614 59.7769" stroke="#00196C" stroke-width="2"
        stroke-linecap="round" />
    <g clip-path="url(#clip0_4011_21782)">
        <path
            d="M80.7731 23.5959C81.5235 25.6346 81.7145 27.6171 81.6941 29.2209C81.6941 29.3752 81.6804 29.5155 81.66 29.6464C80.8277 29.6885 79.8589 29.6464 79.436 29.436C79.3609 29.3986 79.3132 29.3659 79.2927 29.2583C78.9584 27.6265 79.0744 24.9098 79.1017 24.33C79.2177 24.0214 79.436 23.68 79.6133 23.5117C79.9886 23.638 80.3979 23.6613 80.7799 23.5959H80.7731Z"
            fill="#FFDEAF" />
        <path
            d="M82.1346 35.8105C86.7855 37.4922 90.1406 42.1681 90.1406 47.4339C90.1406 54.2954 84.8387 59.8599 78.3009 59.8599C72.9873 59.8599 68.4924 56.1857 66.9954 51.1285"
            stroke="#00196C" stroke-width="2" stroke-miterlimit="10" stroke-linecap="round" />
        <path
            d="M43.8503 52.2629C42.0799 56.7167 37.7568 59.8599 32.7065 59.8599C26.0794 59.8599 20.7051 54.442 20.7051 47.7612C20.7051 41.0805 26.0794 35.6626 32.7065 35.6626C35.2356 35.6626 37.5829 36.4514 39.5153 37.7979"
            stroke="#00196C" stroke-width="2" stroke-miterlimit="10" stroke-linecap="round" />
        <path
            d="M78.1814 24.3902C78.2407 24.1009 78.0285 23.0801 79.1003 22.6006C79.3376 22.4936 79.5868 22.446 79.8399 22.4539C78.5585 19.3983 76.0193 16.5251 71.1388 15.348C71.0834 15.3361 70.9173 15.2925 70.7117 15.4986C70.4704 15.7404 69.7053 15.925 69.8358 16.4838C70.9155 21.2198 70.2249 23.9653 69.0977 25.6734C67.84 27.5797 67.1518 26.9858 67.2003 27.4649C66.706 27.6947 65.9595 28.0703 65.8826 27.9041C65.6532 27.4087 65.0362 27.3682 65.5306 27.1384C65.669 27.071 67.7968 25.997 68.5839 22.9216L59.9263 22.7393C59.8947 22.7393 56.4933 22.5173 54.235 24.9824C51.4744 27.9944 49.7263 28.0737 48.251 27.7091C48.1799 27.6932 48.1166 27.6734 48.0572 27.6655C46.4555 27.3643 30.8054 23.7776 30.1409 23.627L30.0223 23.5993L29.9155 23.5438C29.6743 23.4249 29.2985 23.3456 29.1878 23.3892C29.1957 23.3932 28.5469 23.5744 28.5469 23.9509C28.5469 24.3829 28.5626 25.3472 28.5467 25.7079C28.4795 27.4041 29.0061 27.8639 30.0226 28.2681C32.0278 29.0687 35.3104 29.9411 36.4534 30.5396C36.5325 30.5831 36.7858 30.9312 36.8926 30.9788C38.0277 31.5059 40.3195 32.0758 40.4066 36.6889C40.4382 38.4644 40.4184 40.1692 40.4066 41.5206C40.4026 42.1943 40.3628 42.3509 39.9673 42.8383C39.5244 43.3813 39.3101 43.2736 38.6496 43.2776L34.6964 43.7168C34.3405 43.7049 31.2458 44.0127 31.1825 47.2308C31.1667 48.1344 31.5428 48.9038 32.061 49.427C33.1802 50.5485 35.3458 50.616 35.3537 50.6121C35.5752 50.6121 54.9995 50.7835 60.7541 50.7042C60.7541 50.5615 61.2906 50.2946 61.3104 50.148C61.3183 50.0806 62.6476 43.7915 66.3218 38.8852C68.2163 36.3567 72.165 32.3033 79.11 31.7921C79.0428 31.7524 81.2059 31.278 79.9384 30.9788C79.4361 30.6221 78.2684 30.2793 78.1814 29.6611C77.9441 27.9371 78.1774 25.3836 78.1814 25.2686V24.8294V24.3902ZM53.5666 47.0373C51.506 47.0373 49.7302 45.8286 48.8918 44.0848C48.8127 44.1046 48.7336 44.1204 48.6505 44.1204H42.5044C41.9586 44.1204 41.5156 43.6766 41.5156 43.1297C41.5156 42.5827 41.9586 42.1389 42.5044 42.1389H48.3934C48.3895 42.0398 48.3776 41.9407 48.3776 41.8377C48.3776 38.9684 50.7071 36.6341 53.5706 36.6341C56.434 36.6341 58.7635 38.9684 58.7635 41.8377C58.7635 44.707 56.434 47.0413 53.5706 47.0413L53.5666 47.0373Z"
            fill="#F63463" />
        <path
            d="M53.5699 45.0559C55.3458 45.0559 56.7854 43.6133 56.7854 41.8339C56.7854 40.0544 55.3458 38.6118 53.5699 38.6118C51.7941 38.6118 50.3545 40.0544 50.3545 41.8339C50.3545 43.6133 51.7941 45.0559 53.5699 45.0559Z"
            fill="#F63463" />
        <path
            d="M78.0423 50.3916C79.4948 50.3916 80.6724 49.2141 80.6724 47.7615C80.6724 46.3089 79.4948 45.1313 78.0423 45.1313C76.5897 45.1313 75.4121 46.3089 75.4121 47.7615C75.4121 49.2141 76.5897 50.3916 78.0423 50.3916Z"
            fill="#00196C" />
        <path
            d="M61.5148 51.3416C56.1792 51.4237 35.431 51.4432 35.431 51.4432C35.431 51.4432 30.3706 51.5448 30.4543 47.2615C30.538 42.9782 34.8448 43.0798 34.8448 43.0798L38.6372 43.1189C39.3869 43.1267 39.997 42.392 40.005 41.4775C40.0129 40.4574 40.0129 38.9372 39.9731 36.8581C39.8893 32.4731 37.2375 31.7579 36.3123 31.2811C35.2236 30.7223 31.7942 29.3114 29.7086 28.4986C27.623 27.6818 28.1215 26.4585 28.1215 24.1136C28.1215 21.7687 30.3746 22.8904 30.3746 22.8904C30.3746 22.8904 46.7881 26.5679 48.4031 26.865C49.2007 27.0135 50.6482 27.7873 53.7148 24.5201C56.3667 21.6906 60.2667 21.9954 60.2667 21.9954L69.0995 22.1752"
            stroke="#00196C" stroke-width="2" stroke-miterlimit="10" stroke-linecap="round" />
        <path
            d="M65.9436 27.74C65.9436 27.74 71.2719 25.3283 69.3692 17.1777C69.0321 15.7382 70.0551 14.3747 71.2564 14.6596C75.1819 15.5863 81.8354 18.6741 81.723 28.9744C81.7075 30.5847 80.8167 32.2968 79.4992 32.2968"
            stroke="#00196C" stroke-width="2" stroke-miterlimit="10" stroke-linecap="round" />
        <path
            d="M30.1753 21.8624C30.1753 21.8624 30.05 19.572 31.9376 19.9173C33.8213 20.2582 48.6166 24.2578 48.6166 24.2578C48.6166 24.2578 49.3528 24.944 49.0277 26.1942"
            stroke="#00196C" stroke-width="2" stroke-miterlimit="10" stroke-linecap="round" />
        <path
            d="M81.2561 30.3153C81.2561 30.3153 78.9443 30.8679 78.713 29.186C78.4816 27.5042 78.5973 24.6608 78.5973 24.6608C78.5973 24.6608 79.0599 22.194 80.8169 23.0724"
            stroke="#00196C" stroke-width="2" stroke-miterlimit="10" stroke-linecap="round" />
        <path
            d="M28.0693 27.2463C28.0693 27.2463 25.2358 27.1853 24.9501 25.5195C24.6645 23.8537 26.0654 22.653 27.9287 23.1524"
            stroke="#00196C" stroke-width="2" stroke-miterlimit="10" stroke-linecap="round" />
        <path
            d="M61.7621 50.009C61.782 49.8706 63.0865 43.614 66.5863 39.0995C68.9448 36.0616 73.3515 32.4084 80.5581 32.5084C83.708 32.5545 83.3182 36.3884 80.5581 36.3C68.7817 35.9154 66.638 50.1359 66.5505 50.5666C65.9977 53.3661 61.3445 53.0662 61.7621 50.0052V50.009Z"
            stroke="#00196C" stroke-width="2" stroke-miterlimit="10" />
        <path
            d="M68.8901 19.8818C68.8901 19.8818 65.8488 18.862 63.829 19.1742C62.4798 19.3837 62.5332 17.3956 63.4631 17.0952C64.191 16.862 66.4586 16.3561 69.0997 17.1743"
            stroke="#00196C" stroke-width="2" stroke-miterlimit="10" stroke-linecap="round" />
        <path d="M66.9954 10.4131C66.9954 10.4131 70.281 13.2339 68.6408 15.6734" stroke="#00196C"
            stroke-width="2" stroke-miterlimit="10" stroke-linecap="round" />
        <path
            d="M68.5734 10.4133C69.445 10.4133 70.1515 9.47126 70.1515 8.30919C70.1515 7.14712 69.445 6.20508 68.5734 6.20508C67.7019 6.20508 66.9954 7.14712 66.9954 8.30919C66.9954 9.47126 67.7019 10.4133 68.5734 10.4133Z"
            stroke="#00196C" stroke-width="2" stroke-miterlimit="10" stroke-linecap="round" />
        <path
            d="M25.9917 25.4786C25.8975 24.9659 26.0611 24.5145 26.4328 24.2697C26.6112 24.1511 26.8144 24.1013 27.0176 24.0898C27.0176 24.1166 27.0127 24.1396 27.0127 24.1702C27.0127 24.5604 26.9929 24.9162 26.978 25.2414C26.9631 25.5627 26.9433 25.8803 26.9532 26.194C26.4923 26.0601 26.066 25.842 25.9966 25.4786H25.9917Z"
            fill="#FFDEAF" />
    </g>
    <defs>
        <clipPath id="clip0_4011_21782">
            <rect width="109.34" height="58.7195" fill="white"
                transform="translate(0.663574 0.776855)" />
        </clipPath>
    </defs>
</svg>
    