<svg width="109" height="61" viewBox="0 0 109 61" fill="none" xmlns="http://www.w3.org/2000/svg">
    <path
        d="M85.9697 41.4401L85.3245 41.41L85.2766 40.4298C85.1143 36.8918 83.0311 33.8872 80.0851 32.445H80.0961C80.0961 32.445 80.439 31.5962 79.7053 29.7972C79.4472 29.1662 78.1087 28.6705 76.1324 28.2799H76.5233C76.5233 28.2799 74.8935 23.495 74.193 21.88C72.0766 17.0276 68.0281 14.4624 62.8292 14.0793C57.8331 13.7112 51.458 13.6624 46.7864 14.0793C38.6046 14.8117 33.0075 17.5684 33.0075 17.5684C35.0428 20.4491 35.8134 21.5533 35.7655 21.8312C35.7434 21.8988 33.026 28.4038 33.026 28.4038H34.3386C33.9588 28.4864 33.6122 28.5766 33.2914 28.6742C33.2914 28.6742 33.2914 28.6705 33.2914 28.6667V28.6742C32.2148 28.9935 31.5105 29.3653 31.3188 29.7972C30.6994 31.1943 30.8948 32.7943 30.8948 32.7943H30.998C28.0815 34.9539 26.0167 37.9622 24.87 41.5227L24.3206 41.534H23.4689C22.7056 41.534 22.0862 42.1649 22.0862 42.9424L22.1083 48.4183C22.1083 49.1957 22.7277 49.8267 23.491 49.8267L23.7491 49.8417L24.8995 49.8267C25.1281 44.7752 29.2208 40.7528 34.239 40.7528C39.2572 40.7528 43.586 45.0156 43.586 50.2736V53.2782H65.9227V50.2736C65.9227 45.0156 70.1076 40.7528 75.2696 40.7528C80.4316 40.7528 84.2663 44.6663 84.5981 49.6201V49.7966H85.9587C86.7219 49.7966 87.3414 49.1657 87.3414 48.3882V42.8447C87.3414 42.0673 86.7219 41.4363 85.9587 41.4363L85.9697 41.4401ZM41.5175 17.7863C41.8198 17.1177 42.0528 17.6961 42.7644 17.5684C43.6678 17.4032 44.4444 17.4708 46.5423 17.283C45.3367 19.6416 45.2651 20.8159 43.9746 25.0111C39.2366 25.2402 38.0125 25.4806 38.0125 25.4806L41.5175 17.7863ZM39.8804 36.2872C38.9918 36.2872 38.2765 35.5548 38.2765 34.6534C38.2765 33.752 38.9955 33.0196 39.8804 33.0196H44.8305V36.2872L39.8804 36.2909V36.2872ZM46.5423 26.7303C46.3691 26.7378 46.6094 25.5006 46.6721 25.3391L49.7472 17.1928C49.7656 17.1403 49.8172 17.1065 49.8689 17.1065C49.8689 17.1065 52.8894 16.4154 55.5294 16.4154C58.8368 16.4154 61.0928 16.4154 61.0928 16.4154C61.2035 16.4154 61.6272 17.1778 61.6677 17.283L64.8166 25.3015C64.8719 25.4443 66.1273 27.014 65.3724 26.7303C58.8941 26.4373 51.7046 26.4824 46.9703 26.7303H46.5423ZM65.3918 33.4403C65.3918 34.0299 64.9235 34.5069 64.3446 34.5069H62.9767C62.3978 34.5069 61.9295 34.0299 61.9295 33.4403V32.1183C61.9295 31.5286 62.3978 31.0516 62.9767 31.0516H64.3446C64.9235 31.0516 65.3918 31.5286 65.3918 32.1183V33.4403ZM67.0842 23.7218C66.2436 21.1153 66.4385 20.6021 64.4069 16.745C64.558 16.7562 64.6728 16.7337 64.8166 16.745C68.7102 17.0567 69.97 18.718 71.3638 22.4324V24.1515C71.3638 24.1515 71.8038 24.3957 67.0842 24.1515V23.7218Z"
        fill="#F63463" />
    <path
        d="M31.3407 32.5424L32.3326 31.7424L33.0995 30.473L33.2728 28.8242L31.7463 29.3275L31.0605 30.3265L30.854 32.2157L31.3407 32.5424Z"
        fill="#FFDEAF" />
    <path
        d="M79.8933 32.4416L80.1772 31.8857L79.8933 30.3834L79.5357 29.5571L78.9937 29.9515V31.0782L79.3624 31.8294L79.8933 32.4416Z"
        fill="#FFDEAF" />
    <path
        d="M76.5157 28.2762C76.5157 28.2762 74.886 23.4914 74.1854 21.8801C72.069 17.0277 68.0205 14.4625 62.8216 14.0794C57.6227 13.6963 51.4505 13.6625 46.7788 14.0794C38.6044 14.8118 33.0073 17.5685 33.0073 17.5685C35.0426 20.4492 35.8132 21.5534 35.7653 21.8313C35.7432 21.8989 33.0258 28.4039 33.0258 28.4039"
        stroke="#00196C" stroke-width="2" stroke-linecap="round" stroke-linejoin="round" />
    <path
        d="M34.1314 58.964C39.0948 58.964 43.1184 54.9232 43.1184 49.9386C43.1184 44.9539 39.0948 40.9131 34.1314 40.9131C29.1679 40.9131 25.1443 44.9539 25.1443 49.9386C25.1443 54.9232 29.1679 58.964 34.1314 58.964Z"
        stroke="#00196C" stroke-width="2" stroke-linecap="round" stroke-linejoin="round" />
    <path
        d="M75.2151 58.964C80.1785 58.964 84.2022 54.9232 84.2022 49.9386C84.2022 44.9539 80.1785 40.9131 75.2151 40.9131C70.2517 40.9131 66.228 44.9539 66.228 49.9386C66.228 54.9232 70.2517 58.964 75.2151 58.964Z"
        stroke="#00196C" stroke-width="2" stroke-linecap="round" stroke-linejoin="round" />
    <path
        d="M30.8984 32.7944C30.8984 32.7944 30.703 31.1944 31.3224 29.7973C32.2995 27.5926 46.6425 26.894 55.8162 26.9504C64.3519 26.9992 78.7908 27.5663 79.7015 29.7973C80.4389 31.5963 80.0924 32.4451 80.0924 32.4451"
        stroke="#00196C" stroke-width="2" stroke-linecap="round" stroke-linejoin="round" />
    <path
        d="M46.5904 17.2666C44.6111 17.4265 43.2266 17.612 42.3709 17.7527C41.6995 17.8614 41.1325 18.2644 40.8472 18.8337L37.9817 24.9859C37.9817 24.9859 39.1366 24.7812 43.6066 24.5861C44.8241 21.017 45.4529 19.275 46.5904 17.2666Z"
        stroke="#00196C" stroke-width="2" stroke-linecap="round" stroke-linejoin="round" />
    <path
        d="M67.4197 23.616C70.4122 23.7727 71.4596 24.021 71.4596 24.021L70.5338 21.5212C69.6501 19.1348 67.5156 17.486 65.0468 17.2883C64.9556 17.2811 64.8598 17.2738 64.7639 17.2666C66.0497 19.7422 66.889 21.9431 67.4221 23.616H67.4197Z"
        stroke="#00196C" stroke-width="2" stroke-linecap="round" stroke-linejoin="round" />
    <path
        d="M61.4524 17.3901C60.1671 17.3138 58.7166 17.2666 57.091 17.2666C54.0083 17.2666 51.5038 17.3792 49.518 17.5354C48.6953 19.2642 46.2635 26.7462 45.1401 30.2403C44.7569 31.4316 44.6115 32.6919 44.704 33.9522L45.8373 49.1087H63.8148L66.5374 34.2319C66.7984 32.7972 66.6927 31.3117 66.2268 29.9424C65.077 26.5646 62.8005 20.056 61.4491 17.3901H61.4524Z"
        stroke="#00196C" stroke-width="2" stroke-linecap="round" stroke-linejoin="round" />
    <path
        d="M75.2155 52.0874C76.3972 52.0874 77.3552 51.1253 77.3552 49.9385C77.3552 48.7517 76.3972 47.7896 75.2155 47.7896C74.0337 47.7896 73.0757 48.7517 73.0757 49.9385C73.0757 51.1253 74.0337 52.0874 75.2155 52.0874Z"
        fill="#00196C" />
    <path
        d="M34.1317 52.0874C35.3135 52.0874 36.2715 51.1253 36.2715 49.9385C36.2715 48.7517 35.3135 47.7896 34.1317 47.7896C32.95 47.7896 31.9919 48.7517 31.9919 49.9385C31.9919 51.1253 32.95 52.0874 34.1317 52.0874Z"
        fill="#00196C" />
    <path d="M31.105 32.5913C31.2488 32.5687 33.3394 31.8627 33.2951 28.6665" stroke="#00196C"
        stroke-width="2" stroke-linecap="round" stroke-linejoin="round" />
    <path d="M79.4544 32.1408C78.5252 30.3944 79.3843 29.4893 79.3843 29.4893" stroke="#00196C"
        stroke-width="2" stroke-linecap="round" stroke-linejoin="round" />
    <path
        d="M35.4479 31.4194C33.8661 31.5809 32.2511 31.9039 31.3404 32.5424C28.2395 34.717 26.0641 37.823 24.8732 41.5224L24.3238 41.5337H23.472C22.7088 41.5337 22.0894 42.1647 22.0894 42.9421L22.1115 48.418C22.1115 49.1955 22.7309 49.8264 23.4942 49.8264L23.7523 49.8415L24.9027 49.8264C25.1313 44.7749 29.224 40.7525 34.2422 40.7525C39.2604 40.7525 43.5891 45.0153 43.5891 50.2734V53.278H65.9259V50.2734C65.9259 45.0153 70.1108 40.7525 75.2728 40.7525C80.4348 40.7525 84.2695 44.666 84.6013 49.6199V49.7964H85.9619C86.7251 49.7964 87.3445 49.1654 87.3445 48.388V42.8445C87.3445 42.067 86.7251 41.4361 85.9619 41.4361L85.3166 41.406L85.2687 40.4258C85.0401 35.4419 81.0063 31.5208 76.1061 31.5208"
        stroke="#00196C" stroke-width="2" stroke-linecap="round" stroke-linejoin="round" />
    <path d="M49.1687 6.03125C49.1687 6.03125 57.4493 7.92731 62.9421 13.8895" stroke="#00196C"
        stroke-width="2" stroke-linecap="round" stroke-linejoin="round" />
    <path
        d="M47.6266 6.80956C48.4129 6.9086 49.1299 6.34587 49.228 5.55266C49.3262 4.75946 48.7684 4.03616 47.9821 3.93713C47.1958 3.8381 46.4788 4.40083 46.3806 5.19403C46.2824 5.98723 46.8403 6.71053 47.6266 6.80956Z"
        stroke="#00196C" stroke-width="2" stroke-linecap="round" stroke-linejoin="round" />
    <path d="M7.33325 59.7227L12.3333 59.7227" stroke="#00196C" stroke-width="2"
        stroke-linecap="round" />
    <path d="M20.3333 59.7227L101.333 59.7226" stroke="#00196C" stroke-width="2"
        stroke-linecap="round" />
    <path d="M15.3333 59.7227L17.3333 59.7227" stroke="#00196C" stroke-width="2"
        stroke-linecap="round" />
</svg>
    