<svg viewBox="0 0 16 15" fill="none" xmlns="http://www.w3.org/2000/svg">
    <path d="M1.25 7.5L2.75 6M2.75 6L8 0.75L13.25 6M2.75 6V13.5C2.75 13.9142 3.08579 14.25 3.5 14.25H5.75M13.25 6L14.75 7.5M13.25 6V13.5C13.25 13.9142 12.9142 14.25 12.5 14.25H10.25M5.75 14.25C6.16421 14.25 6.5 13.9142 6.5 13.5V10.5C6.5 10.0858 6.83579 9.75 7.25 9.75H8.75C9.16421 9.75 9.5 10.0858 9.5 10.5V13.5C9.5 13.9142 9.83579 14.25 10.25 14.25M5.75 14.25H10.25" stroke="currentColor" stroke-width="1.5" stroke-linecap="round" stroke-linejoin="round"/>
</svg>
