<svg width="15" height="15" viewBox="0 0 15 15" fill="none" xmlns="http://www.w3.org/2000/svg">
                            <path d="M8.15625 0.25C11.6562 0.25 14.5 3.09375 14.5 6.59375C14.5 6.97656 14.1992 7.25 13.8438 7.25C13.4609 7.25 13.1875 6.97656 13.1875 6.59375C13.1875 3.83203 10.918 1.5625 8.15625 1.5625C7.77344 1.5625 7.5 1.28906 7.5 0.90625C7.5 0.550781 7.77344 0.25 8.15625 0.25ZM8.375 5.5C8.83984 5.5 9.25 5.91016 9.25 6.375C9.25 6.86719 8.83984 7.25 8.375 7.25C7.88281 7.25 7.5 6.86719 7.5 6.375C7.5 5.91016 7.88281 5.5 8.375 5.5ZM7.5 3.53125C7.5 3.17578 7.77344 2.875 8.15625 2.875C10.207 2.875 11.875 4.54297 11.875 6.59375C11.875 6.97656 11.5742 7.25 11.2188 7.25C10.8359 7.25 10.5625 6.97656 10.5625 6.59375C10.5625 5.28125 9.46875 4.1875 8.15625 4.1875C7.77344 4.1875 7.5 3.91406 7.5 3.53125ZM3.69922 0.304688C4.21875 0.167969 4.79297 0.414062 4.98438 0.933594L6.07812 3.55859C6.26953 3.99609 6.16016 4.51562 5.77734 4.81641L4.4375 5.9375C5.33984 7.85156 6.89844 9.41016 8.8125 10.3125L9.93359 8.97266C10.2344 8.58984 10.7539 8.48047 11.1914 8.67188L13.8164 9.76562C14.3086 9.95703 14.582 10.5312 14.4453 11.0508L13.7891 13.457C13.6523 13.9219 13.2422 14.25 12.75 14.25C5.96875 14.25 0.5 8.78125 0.5 2C0.5 1.50781 0.828125 1.09766 1.29297 0.960938L3.69922 0.304688Z" fill="#828282"/>
                        </svg>