<svg viewBox="0 0 19 19" fill="none" xmlns="http://www.w3.org/2000/svg">
    <path
        d="M14.5626 16.25H4.43701C4.28783 16.25 4.14475 16.1907 4.03926 16.0853C3.93377 15.9798 3.87451 15.8367 3.87451 15.6875V3.3125C3.87451 3.16332 3.93377 3.02024 4.03926 2.91475C4.14475 2.80926 4.28783 2.75 4.43701 2.75H11.1876L15.1251 6.6875V15.6875C15.1251 15.7614 15.1105 15.8345 15.0822 15.9028C15.054 15.971 15.0125 16.033 14.9603 16.0853C14.9081 16.1375 14.8461 16.1789 14.7778 16.2072C14.7096 16.2355 14.6364 16.25 14.5626 16.25Z"
        stroke="currentColor" stroke-width="1.5" stroke-linecap="round" stroke-linejoin="round" />
    <path d="M11.1875 2.75V6.6875H15.1256" stroke="currentColor" stroke-width="1.5" stroke-linecap="round"
        stroke-linejoin="round" />
    <path d="M7.25 10.0625H11.75" stroke="currentColor" stroke-width="1.5" stroke-linecap="round"
        stroke-linejoin="round" />
    <path d="M7.25 12.3125H11.75" stroke="currentColor" stroke-width="1.5" stroke-linecap="round"
        stroke-linejoin="round" />
</svg>
    