<svg width="74" height="88" viewBox="0 0 74 88" fill="none" xmlns="http://www.w3.org/2000/svg">
<g clip-path="url(#clip0_3490_63623)">
<path d="M17.0225 69.8947V25.1551C17.0225 21.9962 19.5747 19.4307 22.7171 19.4307H68.4814" stroke="#00196C" stroke-width="2" stroke-linecap="round" stroke-linejoin="round"/>
<path d="M50.9455 79.4405H14.5471C10.7149 79.4405 7.61084 76.3202 7.61084 72.468V69.9795H49.6425" stroke="#00196C" stroke-width="2" stroke-linecap="round" stroke-linejoin="round"/>
<path d="M59.2383 49.9708C59.9051 51.0648 61.2311 51.5502 62.4421 51.1418C64.3812 50.487 66.3203 52.1203 66.0137 54.1543C65.8221 55.4255 66.5272 56.6505 67.7152 57.1205C69.616 57.8678 70.0605 60.3795 68.5276 61.7354C67.5696 62.5829 67.3243 63.9851 67.9374 65.11C68.9185 66.9128 67.6462 69.124 65.6075 69.1702C64.3352 69.201 63.2468 70.1179 62.9939 71.3737C62.5877 73.3845 60.2117 74.2628 58.6098 72.9762C57.6135 72.1749 56.1956 72.1749 55.1992 72.9762C53.605 74.2551 51.2213 73.3845 50.8151 71.3737C50.5622 70.1179 49.4815 69.201 48.2016 69.1702C46.1552 69.1163 44.8905 66.9128 45.8716 65.11C46.4847 63.9851 46.2395 62.5829 45.2814 61.7354C43.7485 60.3795 44.1854 57.8678 46.0938 57.1205C47.2818 56.6505 47.987 55.4178 47.7953 54.1543C47.4888 52.1203 49.4279 50.487 51.367 51.1418C52.5779 51.5502 53.9039 51.0648 54.5707 49.9708C55.636 48.2142 58.173 48.2142 59.2383 49.9708Z" stroke="#00196C" stroke-width="2" stroke-linecap="round" stroke-linejoin="round"/>
<path d="M56.9085 66.4968C59.8589 66.4968 62.2506 64.0926 62.2506 61.1268C62.2506 58.1611 59.8589 55.7568 56.9085 55.7568C53.9581 55.7568 51.5664 58.1611 51.5664 61.1268C51.5664 64.0926 53.9581 66.4968 56.9085 66.4968Z" stroke="#5EFFC3" stroke-width="2" stroke-linecap="round" stroke-linejoin="round"/>
<path d="M51.3975 72.861V87.2298L57.1534 82.3375L62.8404 87.2298V72.3525" stroke="#00196C" stroke-width="2" stroke-linecap="round" stroke-linejoin="round"/>
<path d="M63.0781 50.7031V25.0627C63.0781 21.9578 65.3545 19.4385 68.1596 19.4385C70.9648 19.4385 73.2411 21.9578 73.2411 25.0627V29.2231H63.6146" stroke="#00196C" stroke-width="2" stroke-linecap="round" stroke-linejoin="round"/>
<path d="M23.8208 29.8857H57.322" stroke="#00196C" stroke-width="2" stroke-linecap="round" stroke-linejoin="round"/>
<path d="M23.8208 34.6006H57.322" stroke="#00196C" stroke-width="2" stroke-linecap="round" stroke-linejoin="round"/>
<path d="M23.8901 44.6777H57.2687" stroke="#00196C" stroke-width="2" stroke-linecap="round" stroke-linejoin="round"/>
<path d="M23.8901 49.5859H38.6825" stroke="#00196C" stroke-width="2" stroke-linecap="round" stroke-linejoin="round"/>
<path d="M23.8901 54.501H38.6825" stroke="#00196C" stroke-width="2" stroke-linecap="round" stroke-linejoin="round"/>
<path d="M23.8901 59.4092H38.6825" stroke="#00196C" stroke-width="2" stroke-linecap="round" stroke-linejoin="round"/>
<path d="M23.8901 64.3164H38.6825" stroke="#00196C" stroke-width="2" stroke-linecap="round" stroke-linejoin="round"/>
<path d="M11.1365 6.39482C13.5278 5.5011 15.4056 3.56729 16.2487 1.1481C16.4173 0.655018 17.0841 0.647314 17.2681 1.1404C18.1572 3.54418 20.0809 5.43176 22.4876 6.27925C22.9781 6.44875 22.9857 7.11903 22.4952 7.30394C20.1039 8.19765 18.2261 10.1315 17.383 12.5507C17.2144 13.0437 16.5476 13.0514 16.3637 12.5584C15.4746 10.1546 13.5508 8.26699 11.1442 7.41951C10.6537 7.25001 10.646 6.57972 11.1365 6.39482Z" fill="white" stroke="#5EFFC3" stroke-width="2" stroke-linecap="round" stroke-linejoin="round"/>
<path d="M4.06482 20.2176L3.95752 20.2188L3.96913 21.2973L4.07643 21.2961L4.06482 20.2176Z" stroke="#DCE2FA" stroke-width="2" stroke-linecap="round" stroke-linejoin="round"/>
<path d="M4.01452 14.8172L3.90723 14.8184L3.91884 15.8969L4.02613 15.8957L4.01452 14.8172Z" stroke="#DCE2FA" stroke-width="2" stroke-linecap="round" stroke-linejoin="round"/>
<path d="M1.842 18.0225L0.769043 18.0342L0.770204 18.142L1.84316 18.1304L1.842 18.0225Z" stroke="#DCE2FA" stroke-width="2" stroke-linecap="round" stroke-linejoin="round"/>
<path d="M7.21358 17.9717L6.14062 17.9834L6.14179 18.0913L7.21474 18.0796L7.21358 17.9717Z" stroke="#DCE2FA" stroke-width="2" stroke-linecap="round" stroke-linejoin="round"/>
<path d="M3.61013 32.3125C4.20274 32.3125 4.68315 31.8296 4.68315 31.2339C4.68315 30.6382 4.20274 30.1553 3.61013 30.1553C3.01752 30.1553 2.53711 30.6382 2.53711 31.2339C2.53711 31.8296 3.01752 32.3125 3.61013 32.3125Z" stroke="#F63463" stroke-width="2" stroke-linecap="round" stroke-linejoin="round"/>
</g>
<defs>
<clipPath id="clip0_3490_63623">
<rect width="74" height="88" fill="white"/>
</clipPath>
</defs>
</svg>
