<svg width="126" height="123" viewBox="0 0 126 123" fill="none" xmlns="http://www.w3.org/2000/svg">
<g clip-path="url(#clip0_3148_44946)">
<path d="M48.6684 41.1157L46.1709 41.1273" stroke="#BFDBF7" stroke-width="2" stroke-linecap="round" stroke-linejoin="round"/>
<path d="M57.028 41L54.5305 41.0116" stroke="#BFDBF7" stroke-width="2" stroke-linecap="round" stroke-linejoin="round"/>
<path d="M51.6514 43.9946L51.6745 46.4921" stroke="#BFDBF7" stroke-width="2" stroke-linecap="round" stroke-linejoin="round"/>
<path d="M51.5359 35.6353L51.5474 38.1327" stroke="#BFDBF7" stroke-width="2" stroke-linecap="round" stroke-linejoin="round"/>
<path d="M47.8705 22.0262C49.1796 22.0262 50.2408 20.965 50.2408 19.6559C50.2408 18.3469 49.1796 17.2856 47.8705 17.2856C46.5615 17.2856 45.5002 18.3469 45.5002 19.6559C45.5002 20.965 46.5615 22.0262 47.8705 22.0262Z" stroke="#F63463" stroke-width="2" stroke-linecap="round" stroke-linejoin="round"/>
<path d="M33.2212 42.1679C34.0194 42.1679 34.6665 41.5208 34.6665 40.7226C34.6665 39.9244 34.0194 39.2773 33.2212 39.2773C32.423 39.2773 31.7759 39.9244 31.7759 40.7226C31.7759 41.5208 32.423 42.1679 33.2212 42.1679Z" stroke="#F63463" stroke-width="2" stroke-linecap="round" stroke-linejoin="round"/>
<path d="M75.3079 102.673L19.1729 121.682C17.4963 122.248 15.681 121.369 15.1029 119.728L1.70218 81.4795C1.12406 79.8376 2.01436 78.0455 3.6909 77.4789L59.826 58.4704C61.5025 57.9039 63.3178 58.7826 63.8959 60.4245L77.2967 98.6611C77.8748 100.303 76.9845 102.095 75.3079 102.662V102.673Z" stroke="#00196C" stroke-width="2" stroke-linecap="round" stroke-linejoin="round"/>
<path d="M13.0911 84.6474L42.9103 97.0769L57.0626 68.1826" stroke="#00196C" stroke-width="2" stroke-linecap="round" stroke-linejoin="round"/>
<path d="M21.0344 111.114L30.0877 92.4175" stroke="#00196C" stroke-width="2" stroke-linecap="round" stroke-linejoin="round"/>
<path d="M68.1393 95.6434L48.8071 86.3936" stroke="#00196C" stroke-width="2" stroke-linecap="round" stroke-linejoin="round"/>
<path d="M124.09 54.794L67.4573 27.2179C66.1854 26.6051 64.6592 27.1254 64.0464 28.3857L63.0867 30.3281C62.4623 31.6 62.9942 33.1262 64.2545 33.7506L124.39 63.1998" stroke="#00196C" stroke-width="2" stroke-linecap="round" stroke-linejoin="round"/>
<path d="M79.933 33.9814L77.4702 39.3464" stroke="#00196C" stroke-width="2" stroke-linecap="round" stroke-linejoin="round"/>
<path d="M6.02661 64.7373C6.14223 66.4023 6.32723 68.0326 6.5816 69.6513" stroke="#BFDBF7" stroke-width="2" stroke-linecap="round" stroke-linejoin="round"/>
<path d="M57.0627 119.208C59.7105 119.566 62.4161 119.763 65.1679 119.763C97.9124 119.763 124.46 93.2155 124.46 60.471C124.46 27.7265 97.9124 1.15625 65.1679 1.15625C32.4234 1.15625 7.95754 25.6684 5.99194 56.6438" stroke="#BFDBF7" stroke-width="2" stroke-linecap="round" stroke-linejoin="round"/>
<path d="M47.2578 116.93C48.2984 117.277 49.5472 117.6 50.6109 117.901" stroke="#BFDBF7" stroke-width="2" stroke-linecap="round" stroke-linejoin="round"/>
<path d="M33.7644 19.2049C30.4114 18.0371 27.7405 15.424 26.5033 12.1172C26.2489 11.4466 25.3239 11.4466 25.0811 12.1172C23.9018 15.4356 21.2656 18.0834 17.9241 19.309C17.2419 19.5634 17.2534 20.4768 17.9241 20.708C21.2771 21.8758 23.948 24.4889 25.1852 27.7957C25.4396 28.4663 26.3646 28.4663 26.6074 27.7957C27.7867 24.4773 30.4229 21.8296 33.7644 20.604C34.4466 20.3496 34.4351 19.4362 33.7644 19.2049Z" fill="white" stroke="#5EFFC3" stroke-width="2" stroke-linecap="round" stroke-linejoin="round"/>
<path d="M46.3676 61.9741C44.6564 61.3729 43.3036 60.0548 42.6792 58.3667C42.552 58.0198 42.078 58.0314 41.9623 58.3667C41.3611 60.0548 40.0199 61.4076 38.3202 62.0204C37.9733 62.1476 37.9733 62.61 38.3202 62.7372C40.0314 63.3385 41.3842 64.6566 42.0086 66.3447C42.1358 66.6915 42.6098 66.68 42.7255 66.3447C43.3267 64.6566 44.6679 63.3038 46.3676 62.691C46.7145 62.5638 46.7145 62.1013 46.3676 61.9741Z" fill="white" stroke="#5EFFC3" stroke-width="2" stroke-linecap="round" stroke-linejoin="round"/>
</g>
<defs>
<clipPath id="clip0_3148_44946">
<rect width="125.255" height="123" fill="white" transform="translate(0.372559)"/>
</clipPath>
</defs>
</svg>
