<svg width="67" height="69" viewBox="0 0 67 69" fill="none" xmlns="http://www.w3.org/2000/svg">
<path d="M55.2773 18.0362L58.3433 24.2628L65.1866 25.2587C65.9581 25.3693 66.2586 26.3149 65.7076 26.8581L60.758 31.7066L61.9302 38.5468C62.0605 39.3113 61.2589 39.9048 60.5676 39.5426L54.4457 36.3137L48.3238 39.5426C47.6325 39.9048 46.8309 39.3213 46.9612 38.5468L48.1335 31.7066L43.1839 26.8581C42.6228 26.3149 42.9334 25.3693 43.7049 25.2587L50.5482 24.2628L53.6141 18.0362C53.9548 17.3421 54.9467 17.3421 55.2974 18.0362H55.2773Z" fill="#FFB752" stroke="#00196C" stroke-width="2" stroke-linecap="round" stroke-linejoin="round"/>
<path d="M13.396 17.7745L16.4619 24.0011L23.3052 24.9969C24.0767 25.1076 24.3773 26.0531 23.8262 26.5963L18.8766 31.4448L20.0489 38.2851C20.1791 39.0496 19.3776 39.643 18.6863 39.2809L12.5644 36.0519L6.4425 39.2809C5.75116 39.643 4.9496 39.0596 5.07985 38.2851L6.25213 31.4448L1.30252 26.5963C0.741436 26.0531 1.05204 25.1076 1.82354 24.9969L8.66681 24.0011L11.7328 17.7745C12.0734 17.0804 13.0653 17.0804 13.416 17.7745H13.396Z" fill="#FFB752" stroke="#00196C" stroke-width="2" stroke-linecap="round" stroke-linejoin="round"/>
<path d="M34.4869 16.3159L39.3563 26.2242L50.2575 27.8135C51.4799 27.9946 51.9708 29.5035 51.0791 30.3686L43.1938 38.0839L45.0574 48.978C45.2678 50.2052 43.9853 51.1306 42.8932 50.5573L33.1443 45.417L23.3954 50.5573C22.3032 51.1306 21.0208 50.2052 21.2312 48.978L23.0948 38.0839L15.2095 30.3686C14.3278 29.5035 14.8087 27.9946 16.0311 27.8135L26.9322 26.2242L31.8017 16.3159C32.3527 15.1994 33.9258 15.1994 34.4769 16.3159H34.4869Z" fill="#FFB752" stroke="#00196C" stroke-width="2" stroke-linecap="round" stroke-linejoin="round"/>
<path d="M17.1436 6.13672L22.4438 11.458" stroke="#00196C" stroke-width="2" stroke-linecap="round" stroke-linejoin="round"/>
<path d="M50.2378 5.48242L44.9375 10.8037" stroke="#00196C" stroke-width="2" stroke-linecap="round" stroke-linejoin="round"/>
<path d="M33.4951 1.00586V8.5301" stroke="#00196C" stroke-width="2" stroke-linecap="round" stroke-linejoin="round"/>
<path d="M50.2378 62.3027L44.9375 56.9814" stroke="#00196C" stroke-width="2" stroke-linecap="round" stroke-linejoin="round"/>
<path d="M17.1436 62.957L22.4438 57.6357" stroke="#00196C" stroke-width="2" stroke-linecap="round" stroke-linejoin="round"/>
<path d="M33.8857 67.4326L33.8857 59.9084" stroke="#00196C" stroke-width="2" stroke-linecap="round" stroke-linejoin="round"/>
</svg>
