<svg width="100" height="45" viewBox="0 0 100 45" fill="none" xmlns="http://www.w3.org/2000/svg">
<path d="M8.15558 18.2744C7.31046 18.2744 6.48432 18.525 5.78163 18.9945C5.07893 19.4641 4.53125 20.1314 4.20783 20.9122C3.88442 21.693 3.7998 22.5522 3.96468 23.3811C4.12955 24.2099 4.53652 24.9713 5.13411 25.5689C5.7317 26.1665 6.49308 26.5735 7.32196 26.7383C8.15084 26.9032 9.01 26.8186 9.7908 26.4952C10.5716 26.1718 11.2389 25.6241 11.7085 24.9214C12.178 24.2187 12.4286 23.3926 12.4286 22.5474C12.4286 21.4142 11.9784 20.3273 11.1771 19.5259C10.3757 18.7246 9.28886 18.2744 8.15558 18.2744Z" fill="#F63463"/>
<path d="M30.6705 22.9509C34.792 20.4221 37.1188 15.9587 37.5889 9.69683V9.64245C37.5889 9.49872 37.5889 9.04812 37.5889 9.04812C37.5821 8.84422 37.498 8.65053 37.3538 8.50627C37.2095 8.36202 37.0159 8.27799 36.812 8.2712C36.5789 8.2712 36.338 8.24401 36.0933 8.2207H31.7815C31.5766 8.2222 31.3798 8.30112 31.2307 8.4416C31.0816 8.58209 30.9911 8.77376 30.9774 8.97818C30.5889 15.4032 26.9607 17.9942 24.8436 18.9693C23.7677 19.4287 22.6666 19.8268 21.5456 20.1618C21.5045 20.1753 21.4606 20.1785 21.4179 20.171C21.3753 20.1636 21.3351 20.1458 21.3009 20.1191C21.2659 20.0938 21.2374 20.0605 21.2178 20.022C21.1982 19.9835 21.1881 19.9409 21.1883 19.8977V9.05588C21.1883 8.84262 21.1035 8.63809 20.9527 8.48729C20.802 8.33649 20.5974 8.25177 20.3842 8.25177H15.276C15.0627 8.25177 14.8582 8.33649 14.7074 8.48729C14.5566 8.63809 14.4719 8.84262 14.4719 9.05588V36.0108C14.4719 36.2245 14.5565 36.4294 14.7071 36.5808C14.8578 36.7322 15.0624 36.8178 15.276 36.8188H20.3842C20.5978 36.8178 20.8023 36.7322 20.953 36.5808C21.1037 36.4294 21.1883 36.2245 21.1883 36.0108V26.8355C21.1892 26.7788 21.2071 26.7238 21.2397 26.6774C21.2722 26.631 21.3179 26.5954 21.3708 26.5752L24.1366 25.5536C24.2058 25.5294 24.2816 25.5329 24.3482 25.5633C24.4148 25.5937 24.467 25.6487 24.494 25.7168C24.7854 26.3305 26.2809 29.4692 26.9258 30.5763C29.8431 35.5719 32.9235 36.6751 36.6372 36.7916C36.7459 36.7975 36.8546 36.7805 36.9563 36.7417C37.058 36.7029 37.1505 36.6432 37.2276 36.5663C37.306 36.4947 37.3688 36.4077 37.4122 36.3108C37.4556 36.214 37.4787 36.1092 37.4801 36.0031C37.4995 34.7678 37.5345 32.235 37.55 31.0619C37.555 30.8763 37.4959 30.6947 37.3828 30.5475C37.2696 30.4004 37.1091 30.2967 36.9285 30.2539C35.7403 30.0359 34.6423 29.474 33.7703 28.6379C32.9501 27.7344 32.2455 26.7322 31.6727 25.6546L31.4823 25.3322C30.8259 24.2173 30.4102 23.3433 30.4529 23.1568L30.4879 23.0014L30.6705 22.9509Z" fill="#F63463"/>
<path d="M46.939 8.25195H42.0406C41.5965 8.25195 41.2365 8.61196 41.2365 9.05606V36.011C41.2365 36.4551 41.5965 36.8151 42.0406 36.8151H46.939C47.3831 36.8151 47.7431 36.4551 47.7431 36.011V9.05606C47.7431 8.61196 47.3831 8.25195 46.939 8.25195Z" fill="#F63463"/>
<path d="M90.279 16.666C88.5737 16.666 86.5538 17.3652 84.1026 18.7986L83.7918 18.9773V17.4041C83.7918 17.3158 83.7745 17.2284 83.7407 17.1469C83.7069 17.0654 83.6574 16.9913 83.595 16.9289C83.5326 16.8665 83.4585 16.817 83.377 16.7832C83.2954 16.7494 83.2081 16.7321 83.1198 16.7321H79.4528C79.3645 16.7321 79.2771 16.7494 79.1956 16.7832C79.1141 16.817 79.04 16.8665 78.9776 16.9289C78.9152 16.9913 78.8657 17.0654 78.8319 17.1469C78.7981 17.2284 78.7808 17.3158 78.7808 17.4041V36.015C78.7818 36.1929 78.8529 36.3633 78.9787 36.4891C79.1045 36.6149 79.2749 36.686 79.4528 36.687H83.4306C83.6085 36.686 83.7788 36.6149 83.9046 36.4891C84.0304 36.3633 84.1016 36.1929 84.1026 36.015V23.0678L84.2153 23.0095C86.1575 22.0112 87.7114 21.5062 88.7951 21.5062C90.1664 21.5062 90.7025 22.0578 90.7025 23.4795V36.015C90.7025 36.1033 90.7198 36.1906 90.7536 36.2722C90.7874 36.3537 90.8369 36.4278 90.8993 36.4902C90.9617 36.5526 91.0358 36.6021 91.1173 36.6359C91.1988 36.6697 91.2862 36.687 91.3745 36.687H95.3484C95.4366 36.687 95.524 36.6697 95.6056 36.6359C95.6871 36.6021 95.7612 36.5526 95.8236 36.4902C95.886 36.4278 95.9355 36.3537 95.9693 36.2722C96.003 36.1906 96.0204 36.1033 96.0204 36.015V22.5472C96.0204 18.6471 94.0898 16.666 90.279 16.666Z" fill="#F63463"/>
<path d="M56.3591 16.6738H51.4606C51.0165 16.6738 50.6565 17.0338 50.6565 17.4779V36.015C50.6565 36.4591 51.0165 36.8192 51.4606 36.8192H56.3591C56.8032 36.8192 57.1632 36.4591 57.1632 36.015V17.4779C57.1632 17.0338 56.8032 16.6738 56.3591 16.6738Z" fill="#F63463"/>
<path d="M53.9506 8.25195C53.3014 8.25195 52.6668 8.44447 52.127 8.80515C51.5872 9.16583 51.1665 9.67848 50.918 10.2783C50.6696 10.8781 50.6046 11.538 50.7313 12.1748C50.8579 12.8115 51.1705 13.3964 51.6296 13.8554C52.0886 14.3145 52.6735 14.6271 53.3103 14.7538C53.947 14.8804 54.607 14.8154 55.2068 14.567C55.8066 14.3186 56.3192 13.8978 56.6799 13.358C57.0406 12.8183 57.2331 12.1836 57.2331 11.5344C57.2331 10.6639 56.8873 9.82894 56.2717 9.21336C55.6561 8.59778 54.8212 8.25195 53.9506 8.25195Z" fill="#F63463"/>
<path d="M74.3135 18.453C72.9617 17.2876 71.0349 16.6855 68.5838 16.6855C66.8785 16.6855 64.5788 16.9846 61.5527 17.5984C61.4009 17.6303 61.2645 17.7132 61.1663 17.8334C61.068 17.9535 61.0139 18.1036 61.0128 18.2588V21.0867V21.6811C61.0136 21.852 61.0803 22.016 61.199 22.1389C61.3176 22.2619 61.4791 22.3345 61.6498 22.3415C61.838 22.3169 62.0239 22.2766 62.2053 22.221C63.2114 21.9763 65.5732 21.4053 67.3679 21.4053C70.6271 21.4053 71.066 22.4463 71.066 23.4641V24.2643C71.066 24.2917 71.0606 24.3188 71.05 24.344C71.0394 24.3692 71.0239 24.3921 71.0043 24.4113C70.9848 24.4305 70.9616 24.4455 70.9362 24.4557C70.9108 24.4658 70.8836 24.4707 70.8562 24.4702H66.859C62.1976 24.4702 59.4279 26.7232 59.4279 30.4913C59.4279 34.2593 61.7586 36.6327 65.5461 36.7066H66.1248C67.7836 36.7066 69.2325 36.524 70.7863 35.6344L71.0932 35.4596V36.0151C71.0942 36.1937 71.1659 36.3646 71.2925 36.4905C71.4192 36.6165 71.5905 36.6871 71.7691 36.6871H75.743C75.9212 36.6871 76.0922 36.6163 76.2182 36.4903C76.3442 36.3643 76.415 36.1933 76.415 36.0151V23.7554C76.4267 21.4441 75.7042 19.6533 74.3135 18.453ZM71.0738 28.6306V31.0196L70.9728 31.0817C69.8247 31.7907 68.5073 32.1784 67.1581 32.2043C65.2547 32.2043 64.8585 31.1011 64.8585 30.1766C64.8585 29.3181 65.0721 28.4014 67.6398 28.4014H70.8524C70.8809 28.3998 70.9094 28.404 70.9362 28.4139C70.963 28.4237 70.9875 28.4389 71.0083 28.4585C71.029 28.4782 71.0455 28.5018 71.0568 28.5281C71.068 28.5543 71.0738 28.5826 71.0738 28.6111V28.6306Z" fill="#F63463"/>
</svg>
